<svg width="24" height="24" viewBox="0 0 24 24" xmlns="http://www.w3.org/2000/svg"><g fill="none" fill-rule="evenodd"><path d="M0 0h24v24H0z"/><path d="M14.993 9.617a2.893 2.893 0 1 1-5.786 0 2.893 2.893 0 0 1 5.786 0z" stroke="#333" stroke-width="1.5"/><path d="M5.483 18.391a7.462 7.462 0 0 1 6.413-3.598 7.463 7.463 0 0 1 6.413 3.598" fill="#FFF"/><path d="M5.483 18.391a7.462 7.462 0 0 1 6.413-3.598 7.463 7.463 0 0 1 6.413 3.598" stroke="#333" stroke-width="1.5"/><path d="M21.5 12a9.5 9.5 0 0 1-9.5 9.5A9.5 9.5 0 0 1 2.5 12 9.5 9.5 0 0 1 12 2.5a9.5 9.5 0 0 1 9.5 9.5z" stroke="#333" stroke-width="2"/></g></svg>