<svg width="24" height="24" viewBox="0 0 24 24" xmlns="http://www.w3.org/2000/svg"><path d="M18.811 5.683l-3.326.029 7.293-4.516-2.249 8.282-.79-2.732c-2.162 3.107-5.163 7.334-5.394 7.663-.33.461-.79.721-1.309.707-.489.001-.951-.271-1.268-.732 0 0-1.414-2.014-1.63-2.359-.26-.417-.792-.374-1.065.059-.187.288-3.304 5.576-3.304 5.576-.489.894-.214 1.44.563 1.439l8.768-.012a3.068 3.068 0 0 0 3.062-3.07l-.007-5.428 1.222-1.729.694 2.404.006 4.736a4.98 4.98 0 0 1-4.974 4.987L5.5 21c-2.304.004-2.781-1.882-1.876-3.309l4.712-7.449c.417-.663.935-.764 1.209-.764.359 0 .878.142 1.383.862 0 0 1.139 1.682 1.485 2.172.477.676.994.459 1.311.027 1.04-1.426 3.363-4.56 5.087-6.856zm-3.845-.747l-7.875.01a3.07 3.07 0 0 0-3.063 3.07l.005 3.787a.964.964 0 1 1-1.928.003L2.1 8.02a4.982 4.982 0 0 1 4.974-4.988l8.005-.011a4.824 4.824 0 0 1 2.174.5l-2.287 1.415z" fill="#333" fill-rule="evenodd"/></svg>