<svg id="レイヤー_1" data-name="レイヤー 1" xmlns="http://www.w3.org/2000/svg" viewBox="0 0 82.11 15.23"><defs><style>.cls-3{fill:#fff}</style></defs><path d="M22 15.84h-5.3V11H22zm0-5.08h-5.3V5.67H22zM24.27 6a5.11 5.11 0 0 0-1.54-1.4c-.09 0-.16.07-.26.22l-.47.6h-5.14l-2-.49V17c0 .13 0 .24.07.3a.17.17 0 0 0 .15.05l1.42-.09a.28.28 0 0 0 .25-.32v-.84H22v.58c0 .17.06.2.25.21h1.4c.17 0 .23 0 .23-.21V6.28c.1 0 .4-.12.4-.32m5.4-1.06l-2-.61a13 13 0 0 1-.52 2.28A6.62 6.62 0 0 0 25.91 6h-.11a5.85 5.85 0 0 1 .84 2.53c.06.38.22.47.49.47a1 1 0 0 0 1-1.1 1.46 1.46 0 0 0-.58-1.08 8.36 8.36 0 0 0 2.12-1.92m3.67 3.34a5.37 5.37 0 0 1-1.63-2.59h3a11.12 11.12 0 0 1-1.34 2.54M29.6 10.3h-1.98c.13-.1 1-.81 1.44-1.18h.05a3.05 3.05 0 0 1 .46 1.22m8.14-.54v-.1h-.07a10.07 10.07 0 0 1-3.08-.7 14.49 14.49 0 0 0 1.66-2.3c.41-.08.8-.18.8-.4a8.6 8.6 0 0 0-1.48-1.54c-.12 0-.19 0-.31.14l-.45.52H30.2v.25h1.29a8 8 0 0 0 1.13 3.58 13.16 13.16 0 0 1-1.45 1.67.18.18 0 0 1 0-.06c-.15-.7-.82-1.32-1.92-1.84A9.15 9.15 0 0 0 31 6.8l-1.72-.7v.07a17.18 17.18 0 0 1-2.1 4.18h-1.72l.54 1.91 1.6-.58v1.16c-.35-.09-1.09-.25-1.44-.32h-.09v.09a19.43 19.43 0 0 1-.53 4.23v.06h.11a11.2 11.2 0 0 0 2-3.5v3.74c0 .07 0 .29.21.29l1.14-.1c.16 0 .24-.11.24-.3v-4.32a5.19 5.19 0 0 1 .34 2v.1c0 .39.18.59.5.65h.1a.86.86 0 0 0 .59-.26 1.1 1.1 0 0 0 .31-.81 1.56 1.56 0 0 0-.33-.94h1.77v3.2h-3.05v.25h7.88a.2.2 0 0 0 .18-.12.16.16 0 0 0-.05-.18c-.2-.19-1.39-1.19-1.44-1.23a.11.11 0 0 0-.07 0c-.06 0-.1.07-.15.13L35 16.63h-.74v-3.2H37a.17.17 0 0 0 .16-.1.14.14 0 0 0 0-.15C37 13 36 12.12 35.79 12a.14.14 0 0 0-.1 0c-.06 0-.11 0-.16.12l-.76 1.12h-.5v-2L32.53 11v2.23h-2a5.88 5.88 0 0 0-1.25-.89V11l.37-.17v.41c0 .44.08.92.51 1a.93.93 0 0 0 1-.73 10.91 10.91 0 0 0 2.23-1.32 7.66 7.66 0 0 0 3.25 1.64c.28 0 .31-.39.33-.59a2 2 0 0 1 .75-1.34m9-.84a3.33 3.33 0 0 0-.92-1.5A2 2 0 0 0 45 7a.11.11 0 0 0-.1.06.2.2 0 0 0 0 .17 1 1 0 0 1 0 .3 2.69 2.69 0 0 1-.65 1.4 11.18 11.18 0 0 1-3.52 2.54c.08-1.39.26-4 .26-4a1.4 1.4 0 0 1 .08-.56.52.52 0 0 0 .1-.28.49.49 0 0 0-.08-.25 1.74 1.74 0 0 0-1.57-.86 1.48 1.48 0 0 0-.82.25c-.08.06-.13.12-.13.17s.08.12.13.15a.87.87 0 0 1 .68.87v5.14c-.32.13-.63.24-.91.33v.12l.9-.17v1.55a4.54 4.54 0 0 0 .09 1.22c.3 1.21 1.27 1.8 3.15 1.9h1.6a22.84 22.84 0 0 0 2.29-.12 1.72 1.72 0 0 0 1.07-.45.71.71 0 0 0 0-.9 2 2 0 0 0-1.28-.58 1.07 1.07 0 0 0-.34.07 10.14 10.14 0 0 1-3 .5 6.39 6.39 0 0 1-1.42-.14 1 1 0 0 1-.88-1 19.84 19.84 0 0 1 0-2.35 24.42 24.42 0 0 0 4-1.3 11.17 11.17 0 0 0 1.65-.93.7.7 0 0 0 .3-.83m.79-3a4.91 4.91 0 0 0-1.63-.52v.13A2.47 2.47 0 0 1 46.88 7a2.24 2.24 0 0 0 .1.37.85.85 0 0 0 .67.59.6.6 0 0 0 .52-.19.86.86 0 0 0 .17-.64A1.59 1.59 0 0 0 47.46 6m2.14-.2c-.2-1.08-1.49-1.17-2-1.17a3.26 3.26 0 0 0-.72.08v.13a1.84 1.84 0 0 1 1.42 1.05c.14.32.36.64.73.65a.61.61 0 0 0 .57-.77m0 3.94v.08a4.82 4.82 0 0 1 1.67 1.63l.18.24A.63.63 0 0 0 52 12c.42 0 .74-.43.74-1a1.12 1.12 0 0 0-.19-.63c-.46-.75-1.85-1-2.93-.66m4.18-1.25a1.11 1.11 0 0 0 .2-.54 1.25 1.25 0 0 0-.43-1 3.46 3.46 0 0 0-2.88-.38v.09a4.78 4.78 0 0 1 1.76 1.56l.27.35a.7.7 0 0 0 .53.26.68.68 0 0 0 .6-.3M57.63 6A5 5 0 0 0 56 5.45v.13A2.39 2.39 0 0 1 57 7c0 .12.07.26.11.37a.84.84 0 0 0 .66.59.59.59 0 0 0 .52-.19.78.78 0 0 0 .17-.64A1.55 1.55 0 0 0 57.63 6m2.13-.2c-.2-1.08-1.48-1.17-2-1.17a3.26 3.26 0 0 0-.72.08v.13a1.83 1.83 0 0 1 1.45 1.08c.15.32.37.64.73.65a.61.61 0 0 0 .57-.77m1.1 1.68h-.09a22.9 22.9 0 0 1-8.7 7.14 1.61 1.61 0 0 1-.71.18 1.24 1.24 0 0 1-.85-.32l-.26-.22-.16.11 1.73 2.55A.25.25 0 0 0 52 17h.13c.15-.09.65-.47.89-.66 1.37-1.07 2.14-1.74 2.89-2.39l.1-.08a18 18 0 0 0 4.83-6.35m7.76-3.26a1.58 1.58 0 0 0-.2-.74c-.52-.94-1.89-1.11-2.47-1.18h-.57v.07l.07.05a5 5 0 0 1 1.77 2.2.77.77 0 0 0 .69.5.67.67 0 0 0 .39-.16.91.91 0 0 0 .32-.78m2.79 8.17a1.51 1.51 0 0 0 .15-.65 1.74 1.74 0 0 0-.7-1.38 7.22 7.22 0 0 0-3.43-1.22c.22-.2.42-.4.6-.58a9 9 0 0 1 1.57-1.38.29.29 0 0 0 .18-.18c0-.12-.09-.24-.28-.35a10.78 10.78 0 0 0-1.61-.8.76.76 0 0 0-.21 0 .3.3 0 0 0-.2.08 1.63 1.63 0 0 1-.46.27 21.42 21.42 0 0 1-4 .71h-.1a1 1 0 0 1-.81-.34.12.12 0 0 0-.1-.05c-.06 0-.1 0-.11.11a1.18 1.18 0 0 0-.05.29 1.72 1.72 0 0 0 1.27 1.29h.09l.74-.26c.61-.19 2.88-.68 3-.7h.11a1.06 1.06 0 0 0-.11.13 28.47 28.47 0 0 1-7.2 6.62v.09a18.42 18.42 0 0 0 6.11-3.54V12c0 1.55-.09 2.92-.18 4.06v.19a1.76 1.76 0 0 0 .16.76 1 1 0 0 0 .8.52c.48 0 .69-.77.69-1.17 0-1 0-1.9-.05-2.79s0-1.77-.06-2.83a2.17 2.17 0 0 1 .1-.77.43.43 0 0 0-.24-.53 6.07 6.07 0 0 1 2.95 2.81q.25.6.66.6a.76.76 0 0 0 .63-.41M83 13.91c-.59-1.16-2-2.16-4.49-3.18.56-.6 1.13-1.26 1.66-1.87l.41-.47a1.15 1.15 0 0 1 .47-.3l.19-.1a.34.34 0 0 0 .17-.24.41.41 0 0 0-.1-.32A8.7 8.7 0 0 0 80 6.2a.45.45 0 0 0-.29-.1.41.41 0 0 0-.25.08 1.53 1.53 0 0 1-.66.36 38.79 38.79 0 0 1-5.29 1h-.15a.93.93 0 0 1-.72-.25s0-.07-.1-.07-.13.11-.15.17a1.06 1.06 0 0 0 0 .25c0 1.08 1.37 1.43 1.53 1.46a3.92 3.92 0 0 0 .51-.22 9.23 9.23 0 0 1 1.71-.7c.78-.22 1.35-.33 1.94-.45l.65-.13h.09c.01 0 0 .08 0 .12a24.47 24.47 0 0 1-8.45 8.4v.1a20.44 20.44 0 0 0 7.89-5.13 9.85 9.85 0 0 1 3 3.51c0 .06.2.37.2.37.24.48.53 1 1.07 1a.64.64 0 0 0 .46-.21 1.68 1.68 0 0 0 .01-1.85" transform="translate(-1.12 -2.33)" fill="#251e1c"/><path fill="#c50025" d="M0 2.72h11.96v11.96H0z"/><path class="cls-3" d="M5.13 8.45c.17 0 .18 0 .18-.32v-.47c0-.22 0-.24-.18-.26v-.05h.42c.16 0 .41 0 .41.25s-.13.21-.23.24a.34.34 0 0 1 .3.32c0 .27-.26.29-.44.29zm.37-.3c0 .11 0 .24.13.24s.18-.08.18-.21a.27.27 0 0 0-.31-.28zm0-.31a.2.2 0 0 0 .23-.22c0-.18-.12-.2-.25-.2v.42zM6.76 7.35h.44v.05c-.13 0-.13.06-.14.33V8a.68.68 0 0 1-.06.35.42.42 0 0 1-.33.13.47.47 0 0 1-.33-.12c-.1-.1-.08-.26-.08-.39v-.26c0-.29 0-.28-.19-.31v-.05h.56v.05c-.19 0-.19.09-.19.31v.23a.61.61 0 0 0 0 .3.29.29 0 0 0 .26.14c.3 0 .3-.2.3-.38v-.41c0-.17-.07-.16-.21-.19zM7.84 7.68c0-.13-.06-.28-.21-.28s-.14.07-.14.17c0 .26.46.24.46.58a.34.34 0 0 1-.38.33.57.57 0 0 1-.28-.08v-.32c0 .16.15.34.31.34a.16.16 0 0 0 .16-.18c0-.27-.46-.25-.46-.57a.34.34 0 0 1 .35-.34.41.41 0 0 1 .24.08zM8.35 8.09c0 .3 0 .29.18.32H8c.17 0 .19 0 .19-.32v-.38c0-.29 0-.28-.19-.31v-.05h.56v.05c-.16 0-.18 0-.18.31zM8.83 7.72c0-.17 0-.29-.19-.32v-.05H9c.18.27.42.54.62.81v-.52c0-.19-.05-.22-.21-.24v-.05h.43v.05c-.13 0-.13.08-.13.34v.72h-.07c-.14-.2-.47-.58-.71-.87v.53c0 .18 0 .21.21.25h-.49c.11 0 .18 0 .18-.24zM10.28 7.93v.21c0 .17 0 .25.19.25s.26-.12.3-.31a.92.92 0 0 1-.05.37h-.81c.16 0 .18 0 .18-.32v-.42c0-.29 0-.28-.18-.31v-.05h.83v.28c0-.21-.13-.21-.29-.21h-.1v.41h.12c.12 0 .18 0 .22-.16a3 3 0 0 0 0 .42c0-.16-.09-.16-.22-.16zM11.56 7.68c0-.13-.07-.28-.21-.28s-.14.07-.14.17c0 .26.46.24.46.58a.34.34 0 0 1-.38.33.54.54 0 0 1-.29-.08l-.05-.32c0 .16.15.34.32.34a.16.16 0 0 0 .16-.18C11.44 8 11 8 11 7.66a.34.34 0 0 1 .35-.34.43.43 0 0 1 .24.08zM12.34 7.68c0-.13-.06-.28-.2-.28a.15.15 0 0 0-.15.17c0 .26.47.24.47.58a.34.34 0 0 1-.38.33.6.6 0 0 1-.29-.08v-.32c.05.16.15.34.32.34a.16.16 0 0 0 .16-.18c0-.27-.46-.25-.46-.57a.33.33 0 0 1 .35-.34.43.43 0 0 1 .24.08zM6.88 6.25c0-.16 0-.28-.18-.32H7c.18.27.43.53.63.81v-.56c0-.2 0-.22-.21-.25h.43c-.12 0-.13.09-.13.35V7h-.05c-.14-.2-.48-.59-.71-.88v.53c0 .17 0 .22.2.26V7h-.45c.1 0 .17 0 .17-.24zM8.35 6.63c0 .3 0 .28.18.32V7H8c.16 0 .18 0 .18-.32v-.43c0-.29 0-.28-.18-.32h.55c-.16 0-.18 0-.18.32zM11.22 6.47v.21c0 .17 0 .24.19.24s.26-.11.3-.3a.92.92 0 0 1-.01.38h-.85c.16 0 .18 0 .18-.32v-.43c0-.29 0-.28-.18-.32h.83v.28h-.05c0-.21-.13-.21-.29-.21h-.1v.41h.12c.12 0 .18 0 .22-.16a2.84 2.84 0 0 0 0 .41c0-.16-.09-.15-.22-.15zM12.18 6.63c0 .3 0 .28.19.32V7h-.56c.17 0 .19 0 .19-.32v-.43c0-.29 0-.28-.19-.32h.56c-.17 0-.19 0-.19.32zM9 6.63v-.38C9 6 9 6 9.2 5.93h-.56c.17 0 .19 0 .19.32v.38c0 .3 0 .28-.19.32V7h.56C9 6.91 9 6.93 9 6.63z" transform="translate(-1.12 -2.33)"/><path class="cls-3" d="M9.77 7a.32.32 0 0 1-.19-.11l-.38-.5.11-.14c.13-.15.17-.23.32-.27h-.37c.15 0 .07.14 0 .27l-.26.2.32.42a.41.41 0 0 0 .45.13z" transform="translate(-1.12 -2.33)"/><path class="cls-3" d="M10.12 6.64v-.39c0-.29 0-.28.18-.31v-.05h-.56v.05c.17 0 .19 0 .19.31v.39c0 .29 0 .28-.19.31V7h.56c-.16-.08-.18-.07-.18-.36z" transform="translate(-1.12 -2.33)"/><path class="cls-3" d="M10.87 7a.32.32 0 0 1-.19-.11l-.38-.5.11-.14c.13-.14.17-.23.32-.26v-.1h-.37v.05c.15 0 .07.13 0 .27l-.19.24.32.42a.37.37 0 0 0 .42.12z" transform="translate(-1.12 -2.33)"/></svg>