<svg xmlns="http://www.w3.org/2000/svg" viewBox="0 0 171.93 39.6"><defs><style>.cls-2{clip-path:url(#clip-path)}.cls-3{fill:#132f5a}.cls-5{fill:#0d7a7a}</style><clipPath id="clip-path" transform="translate(-8.5 -8.5)"><path fill="none" d="M0 0h188.94v56.61H0z"/></clipPath></defs><g id="レイヤー_2" data-name="レイヤー 2"><g id="レイヤー_1-2" data-name="レイヤー 1"><g class="cls-2" id="logo1.light.horizon.bizgate"><g class="cls-2"><path class="cls-3" d="M100 34.3v-.08c1.5-.37 2.1-1.87 2.1-4.15 0-4.1-2.28-5.17-6.4-5.17-1.15 0-4.55 0-6.13.12-.25 0-.32.08-.32.33v18c0 .25.07.3.32.32 1.58.08 5.78.13 6.95.13 3.75 0 6.08-.88 6.08-5.08 0-2.07-.5-4.07-2.6-4.47m-8.83-7.73h4.4c3.08 0 4.63.6 4.63 3.63s-1.43 3.35-5 3.35h-4zm5.45 15.6h-5.48v-7h5.7c2.35 0 3.83.6 3.83 3.62 0 2.83-1.4 3.4-4.08 3.4" transform="translate(-8.5 -8.5)"/><path d="M108 25.22a1.05 1.05 0 0 0-1.2 1.15 1.08 1.08 0 0 0 1.2 1.2 1.05 1.05 0 0 0 1.15-1.2 1 1 0 0 0-1.15-1.15" transform="translate(-8.5 -8.5)" fill="#183269"/><path class="cls-3" d="M108.56 30.2h-1.17a.29.29 0 0 0-.33.32V43.4c0 .22.1.32.33.32h1.17a.29.29 0 0 0 .33-.32V30.52a.3.3 0 0 0-.33-.32M123.91 42.12h-8l7.95-10.82a.75.75 0 0 0 .15-.43v-.35c0-.2-.1-.32-.35-.32H114c-.23 0-.35.12-.35.32v1c0 .2.12.32.35.32h7.32l-7.82 10.7a.56.56 0 0 0-.18.4v.48c0 .22.13.32.35.32h10.23a.29.29 0 0 0 .32-.32v-.95a.29.29 0 0 0-.32-.33M141.4 34.55h-1.17c-.2 0-.33.1-.33.3v7.32h-4.1c-4.65 0-5.5-1.75-5.5-7.77s.85-7.83 5.5-7.83h4.55a.29.29 0 0 0 .32-.32v-.85a.33.33 0 0 0-.29-.35c-1.25-.13-3.23-.15-4.58-.15-6 0-7.4 2.2-7.4 9.5s1.43 9.45 7.4 9.45c1.75 0 5.17.07 5.83-.83a.72.72 0 0 0 .09-.4v-7.77a.28.28 0 0 0-.32-.3M156 34c0-2.9-2.05-3.88-5.5-3.88a22.84 22.84 0 0 0-3.4.23c-.23.05-.3.1-.3.35v.7c0 .25.07.32.32.32h3.38c2.45 0 3.7.68 3.7 2.55v2h-4.38c-2.77 0-4.17.95-4.17 3.7 0 3.12 1.3 4 4.57 4a21.23 21.23 0 0 0 5.33-.5.58.58 0 0 0 .45-.65zm-1.8 8a17.57 17.57 0 0 1-3.58.32c-2.35 0-3.17-.52-3.17-2.37 0-1.58.75-2.13 2.37-2.13h4.38zM166.16 42.25h-1.32c-1.33 0-1.63-.28-1.63-1.4V31.7H166a.28.28 0 0 0 .32-.3v-.88a.29.29 0 0 0-.32-.32h-2.78v-3.5c0-.25-.12-.35-.37-.28l-1.18.28a.32.32 0 0 0-.27.32v3.18H160a.29.29 0 0 0-.33.32v.88c0 .2.1.3.33.3h1.4v9.52c0 2.5 1.75 2.63 3.47 2.63a7.87 7.87 0 0 0 1.35-.13c.2 0 .3-.15.3-.32v-.85c0-.23-.1-.3-.35-.3M175.11 30.07c-4.53 0-5.45 1.35-5.45 6.88s.92 6.9 5.45 6.9a38.92 38.92 0 0 0 3.95-.18.3.3 0 0 0 .3-.32v-.78a.29.29 0 0 0-.33-.32h-3.92c-2.93 0-3.55-.93-3.63-4.4h8.18c.7 0 .77-.2.77-.63v-.72c-.05-5.15-1.05-6.43-5.32-6.43m-3.63 6.15c.05-3.65.6-4.55 3.63-4.55 2.87 0 3.45.85 3.5 4.55z" transform="translate(-8.5 -8.5)"/><path class="cls-5" d="M32 24.51l-6.66.89L18 24.16v.67L24.72 26v17L18 44v.67l7.34-1.14 6.66.81a.11.11 0 0 0 .12-.11V24.62a.11.11 0 0 0-.12-.11" transform="translate(-8.5 -8.5)"/><path class="cls-3" d="M18 24.83V8.62a.11.11 0 0 0-.15-.11L8.5 12.42v33.74l9.41 1.94A.11.11 0 0 0 18 48V24.83zm-2.07 9.27c0 .6-.26 1.11-.58 1.12s-.57-.46-.57-1.06.26-1.1.57-1.12.58.45.58 1.06" transform="translate(-8.5 -8.5)"/><path class="cls-5" d="M55.72 43.16l.05 1.07h-1.23v-1.88H43.67v1.88h-1.22V26.78v-1.07h13.32c0 .38-.05.73-.05 1.07zm-12-9.91h10.82v-6.5H43.67zm10.87 1H43.68v7h10.86zM66.77 43.46v.75H65.7v-9.16l-3.29.34c-.19 0-.5.09-.75.14l-.16-1.12h1.7c.64-.75 1.34-1.66 2-2.62a39.89 39.89 0 0 0-3.38-3.57l.61-.79 1 .95A18.65 18.65 0 0 0 65.81 24l1 .56c-.07.07-.11.16-.18.23a30.63 30.63 0 0 1-2.48 4.23c.59.61 1.18 1.25 1.68 1.84a27.63 27.63 0 0 0 2.57-4.64l.93.59a1.54 1.54 0 0 1-.18.23 39.6 39.6 0 0 1-4.61 7.16c1.47-.16 3.2-.36 4.2-.5a12.39 12.39 0 0 0-.91-2l.82-.32a23.57 23.57 0 0 1 1.75 4.34l-.93.32c-.11-.43-.25-.93-.41-1.43l-2.27.29zm-3.68-6.77l1 .18a3.26 3.26 0 0 1 0 .34 20.69 20.69 0 0 1-1.16 6c-.25-.09-.64-.3-1-.46a17.79 17.79 0 0 0 1.19-6.06m7 4.7c-.29.11-.61.23-.95.34a25.34 25.34 0 0 0-1-4.95l.84-.25a27.81 27.81 0 0 1 1.09 4.86m12.1 1.23v1.09H69.84v-1.09h5.95V38.3H71.52v-1.05H75.79v-2.61V34h1.2v3.23h4.1v1.07H76.9v4.34h5.33m-6.58-11.43a13.1 13.1 0 0 1-2.86-4.52H71.15v-1h8.55l.14-.16c.22.16.68.5 1.07.84l-.19.09a12.51 12.51 0 0 1-3.41 4.75 12.64 12.64 0 0 0 4.85 2c-.16.34-.35.77-.46 1a14.16 14.16 0 0 1-5.18-2.34 14.79 14.79 0 0 1-5.39 2.37c-.09-.25-.32-.73-.45-1.05a14.83 14.83 0 0 0 5-2m-1.79-4.52a9.94 9.94 0 0 0 2.68 3.93 11.33 11.33 0 0 0 3-3.93z" transform="translate(-8.5 -8.5)"/></g></g></g></g></svg>