<svg width="57" height="13" viewBox="0 0 57 13" xmlns="http://www.w3.org/2000/svg"><g fill="#FFF" fill-rule="nonzero"><path d="M11.565 0L9.45 7.892 6.847 0H3.264L0 12.177h2.977L5.242 3.72l2.778 8.458h3.256L14.539 0zM54.026 0l-3.264 12.177h2.974L57 0zM16.321 0l-3.264 12.177h2.975L19.295 0zM49.616 7.178l.607-2.265h-5.067l.654-2.438h5.676L52.149 0H43.5l-3.19 11.906-2.348-6.271h-.924L42.607 0h-3.51l-5.2 5.17L35.285 0h-2.975l-3.208 11.972-2.372-6.337h-.924L31.375 0h-3.511l-5.198 5.17L24.05 0h-2.974l-3.264 12.177H20.787l1.754-6.542h1.052l2.14 6.542h6.286l1.754-6.542h1.052l2.141 6.542h12.003l.663-2.471h-5.76l.677-2.528z"/></g></svg>