<svg xmlns="http://www.w3.org/2000/svg" width="240" height="91.781" viewBox="0 0 240 91.781"><defs><clipPath id="a"><path d="M0 92.684h242.362V0H0v92.684z"/></clipPath></defs><g clip-path="url(#a)" transform="matrix(.99 0 0 -.99 0 91.781)"><path d="M82.652 25.856c0-.873.682-1.55 1.562-1.55s1.56.702 1.56 1.55c0 .847-.71 1.553-1.56 1.553-.85 0-1.562-.68-1.562-1.558m4.115 0c0-1.383-1.107-2.568-2.553-2.568a2.56 2.56 0 0 0-2.554 2.568c0 1.44 1.19 2.54 2.554 2.54 1.39 0 2.553-1.128 2.553-2.54M80.254 23.4c1.437 0 1.84-1.452 1.84-2.114 0-.41-1.313-9.43-6.458-15.075-1.79-1.95-4.11-3.72-7.77-4.95-.882-.28-1.89-.564-2.118-.564-.328 0-.53.316-.53.663 0 .566.405.692.655.756 2.6.756 8.655 2.523 12.31 11.857 1.363 3.47 1.692 6.465 1.692 6.78 0 .346-.178 1.2-1.06 1.2h-13.32c-.327 0-.857 0-.857.723 0 .727.53.727.858.727h14.758zm11.343-1.327c-.757 0-1.16-.598-1.16-1.42V5.36c0-.883.454-1.42 1.16-1.42h10.646c.757 0 1.16.6 1.16 1.42v15.294c0 .884-.453 1.42-1.16 1.42H91.597zM105.32 4.887c0-1.387-.78-2.397-1.917-2.397H90.438c-1.06 0-1.917.884-1.917 2.397v16.24c0 1.42.78 2.397 1.92 2.397h12.967c1.058 0 1.918-.883 1.918-2.396V4.888zm23.964 19.933c0-.476-.328-.917-.706-.917-.277 0-.354.094-1.135 1.04-.2.22-1.135 1.167-1.338 1.388-.1.13-.225.35-.225.54 0 .348.25.663.553.663.302 0 2.85-1.702 2.85-2.71m-2.875-.665c.96-.82.984-1.103.984-1.388 0-.566-.404-1.04-.782-1.04-.252 0-.352.125-1.26 1.23-.48.567-.782.914-1.338 1.45a.878.878 0 0 0-.277.6c0 .315.176.662.554.662.374 0 1.66-1.106 2.114-1.517m-9.156-2.837c-1.766 1.766-3 2.523-3.96 3.09-.355.222-.58.442-.58.79 0 .504.327.755.555.755.277 0 3.127-1.45 4.968-2.74 1.213-.82 1.566-1.2 1.566-1.924 0-.79-.505-1.23-.91-1.23-.404 0-.53.124-1.64 1.26m-4.843-17.88c7.844 1.39 12.56 7.6 15.26 13.34.833 1.764.933 1.953 1.236 1.953.227 0 .555-.187.555-.66 0-.44-2.65-7.63-6.988-11.794-2.294-2.21-4.893-3.628-7.693-4.604-.53-.19-2.07-.758-2.6-.758-.706 0-1.035.63-1.035 1.07 0 .853.252 1.26 1.262 1.45m2.52 10.124c-1.386 1.037-3.127 2.206-4.893 2.806-.43.156-.58.41-.58.788 0 .475.302.787.58.787.276 0 2.474-.723 4.363-1.543 2.42-1.04 2.777-1.576 2.777-2.365 0-.724-.53-1.23-.984-1.23-.253 0-.506.19-1.262.758M141.24 2.71h7.04c.276 0 .78-.03.78-.69 0-.664-.504-.664-.78-.664h-15.792c-.253 0-.758 0-.758.663 0 .66.48.69.758.69h7.063V15.95h-5.32c-.275 0-.78 0-.78.662 0 .694.505.694.782.694h12.335c.253 0 .756 0 .756-.694 0-.662-.477-.662-.756-.662h-5.323V2.71zm27.547 18.955c.934 0 1.894-.475 1.894-1.767 0-.914-1.54-13.97-10.54-18.196-1.716-.82-5.324-1.672-6.61-1.672-.3 0-.58.317-.58.726 0 .632.326.694 1.008.788 5.45.884 9.334 3.217 12.008 8.767 2.066 4.29 2.548 8.61 2.548 9.15 0 .38-.177.79-.655.79h-8.604c-1.034-2.587-2.244-4.353-4.162-6.087-.883-.82-2.37-1.957-2.7-1.957-.327 0-.553.35-.553.695 0 .378.124.474.528.79 1.212.883 4.994 3.72 6.408 11.446.176.947.303 1.705 1.11 1.705.38 0 1.085-.316 1.085-1.167 0-.728-.957-3.5-1.16-4.006h8.98zm10.14-20.088c0-.475 0-1.577-.933-1.577-.982 0-.982 1.102-.982 1.544v22.768c0 .475 0 1.577.957 1.577s.954-1.107.954-1.55v-7.79c2.774-.913 5.45-2.24 7.896-4.067 1.29-.976 1.64-1.355 1.64-2.113 0-.692-.402-1.26-.96-1.26-.477 0-.755.317-1.26.885-2.194 2.52-4.415 4.035-7.315 5.172V1.577z" fill="#545151"/><path d="M41.54 37.24c-.612 0-.963.405-.963 1.117 0 .92.694 1.088 1.62 1.288l.133.03c13.407 3.127 18.393 12.77 20.63 19.613 1.91 5.844 2.602 12.717 2.602 16.37 0 1.97-.793 2.968-2.357 2.968h-23.78c-1.53 0-2.516-1.242-2.516-3.16v-8.678c0-1.398-.08-3-1.67-3-1.588 0-1.793 1.602-1.793 3v9.714c0 2.797 1.55 4.75 3.764 4.75H49.3v8.29c0 1.483.214 3 1.794 3s1.793-1.517 1.793-3v-8.29H66.24c3.155 0 3.247-3.74 3.247-4.166 0-.177-.45-17.486-7.794-27.838C60.505 47.6 55.08 39.915 42.6 37.366a5.252 5.252 0 0 0-1.06-.127M95.788 67.1c.208 0 1.42 0 1.42-1.214s-1.212-1.214-1.446-1.214h-20.65c-.232 0-1.445 0-1.445 1.214 0 1.213 1.187 1.213 1.42 1.213h20.7zm-.145 11.6c-.59 0-1.708 0-1.708 1.247 0 1.306 1.073 1.306 1.708 1.306h30.242c2.508 0 3.133-2.27 3.133-3.348 0-3.066-8.537-17.767-17.936-23.557 2.588-3.008 7.174-9.253 7.174-11.18 0-1.193-.77-2.33-1.906-2.33-.954 0-1.18.512-2.044 2.442-2.587 5.846-7.446 12.374-11.806 15.44-1.134.792-1.527 1.01-1.668 1.554-.09.35.04.74.166.93.262.396.764.486 1.126.386.482-.132 3.6-1.737 7.233-5.482 10.806 7.946 15.665 20.944 15.665 21.682 0 .74-.453.91-.817.91H95.643zm49.384-10.855c0-.504-1.205-13.273-6.395-21.92-1.93-3.267-5.55-8.044-13.113-11.31-2.136-.906-3.987-1.358-4.35-1.358-.48 0-.884.502-.884 1.106 0 .854.6 1.004.965 1.107 14.16 4.12 18.946 17.945 20.153 31.016.2 2.01.32 3.52 2.012 3.52.68 0 1.606-.855 1.606-2.16m24.324-12.72c-3.387 1.8-6.695 3.21-13.504 4.476-.466.097-1.17.195-1.17 1.07 0 .292.197 1.022.898 1.022 2.84 0 10.622-1.897 13.85-3.016 2.53-.877 3.426-1.217 3.426-2.774 0-1.07-.74-1.702-1.4-1.702-.39 0-.584.097-2.102.924m1.556 12.502c-3.657 1.655-9.222 3.067-15.526 3.067-1.168 0-1.87 0-1.87 1.07s.896 1.07 1.13 1.07c4.475 0 8.678-.195 13.115-.876 5.76-.93 6.15-1.756 6.15-3.02 0-.83-.39-1.656-1.326-1.85-.27-.05-.66.1-1.672.534m2.49-28.8c-4.63 3.698-11.36 6.664-18.912 8.076-2.96.585-3.114.585-3.114 1.46 0 .34.156 1.07.934 1.07.234 0 8.638-.436 18.796-5.11 5.643-2.625 5.8-3.353 5.8-4.473 0-.926-.584-2.093-1.714-2.093-.468 0-.584.097-1.79 1.07M205.852 79.483c1.44 0 2.92-.73 2.92-2.725 0-1.41-2.375-21.552-16.268-28.07-2.646-1.266-8.213-2.58-10.197-2.58-.467 0-.894.486-.894 1.12 0 .973.505 1.07 1.556 1.216 8.4 1.362 14.4 4.962 18.52 13.524 3.19 6.617 3.93 13.283 3.93 14.11 0 .582-.27 1.215-1.01 1.215h-13.27c-1.596-3.99-3.466-6.713-6.42-9.39-1.36-1.264-3.66-3.015-4.166-3.015-.506 0-.857.534-.857 1.07 0 .584.193.73.816 1.215 1.867 1.363 7.704 5.743 9.884 17.662.273 1.46.47 2.626 1.713 2.626.586 0 1.675-.48 1.675-1.794 0-1.12-1.48-5.402-1.79-6.18h13.854zm7.513-14.553c-.505 0-1.323 0-1.323 1.12s.818 1.12 1.323 1.12h19.108c2.18 0 2.61-2.287 2.61-3.017 0-2.724-4.01-11.97-6.113-15.325 7.51-4.865 13.392-10.995 13.392-12.94 0-.682-.388-2.14-1.595-2.14-.7 0-.855.29-2.296 2.577-3.58 5.79-8.72 9.487-10.51 10.85-3.58-5.645-8.48-9.585-13.892-12.067-.7-.34-3.074-1.41-3.424-1.41-.425 0-.815.438-.815 1.07 0 .778.427.973 1.32 1.315 15.72 6.13 20.35 25.687 20.35 27.632 0 .487-.194 1.216-1.205 1.216h-16.93zM7.372 79.882v-9.044c0-.97.204-1.556 1.525-1.556H18.91c1.322 0 1.527.617 1.527 1.556v9.044H7.372zm13.065 1.352v8.573c0 .91-.205 1.556-1.526 1.556H8.9c-1.057 0-1.525-.353-1.525-1.556v-8.573H20.44zm-.44 11.45c3.288 0 3.698-1.527 3.698-3.32V71.25c0-1.998-.586-3.29-3.7-3.29H7.84c-3.287 0-3.7 1.498-3.7 3.29v18.115c0 1.998.588 3.32 3.7 3.32h12.156zm-7.37-31.718c-.264 0-.822.058-.822.645 0 .65.558.68.822.68h11.246c1.174 0 2.026-.53 2.026-1.47 0-1.054-2-4.255-5.05-6.75 2.02-1.734 4.05-2.408 6.103-3.114.44-.146.586-.264.586-.615 0-.383-.32-.677-.646-.677-.147 0-.293 0-.618.09-3.61.88-5.874 2.2-7.163 3.024-2.908-1.997-5.844-2.995-6.313-2.995-.352 0-.644.324-.644.675 0 .413.32.59.528.677 2.054.94 3.112 1.438 4.845 2.818-2.146 1.79-3.496 4.23-3.496 5.022 0 .82.88 1.407 1.703 1.407.91 0 1.144-.586 1.466-1.41.705-1.82 1.616-2.906 2.086-3.405 2.29 2.406 3.05 4.726 3.05 4.934 0 .29-.235.47-.586.47h-9.13zm4.904-15.973h-4.49c-.262 0-.82.058-.82.674 0 .618.59.675.82.675h4.496v2.056c0 .5 0 1.997 1.587 1.997 1.615 0 1.615-1.468 1.615-1.997v-2.056h4.495c.292 0 .82-.087.82-.675 0-.616-.528-.674-.82-.674h-4.5v-6.55h5.786c.293 0 .82-.088.82-.674 0-.59-.527-.68-.82-.68H10.982c-.264 0-.823.06-.823.675 0 .645.588.674.823.674h6.548v6.55zM9.4 42.466c-.147 1.263-.354 2.292-.646 3.29-.028.087-.264.85-.264 1.027 0 .323.265.616.647.616.41 0 .705-.5 1.32-1.47.588-.91 1.82-3.2 1.82-3.967 0-.91-.94-1.41-1.554-1.41-1.116 0-1.176.764-1.322 1.91m-9.34-3.73c0 .294.44 1.588.5 1.85.44 1.85.5 3.23.557 4.846.03.647.06 1.704 1.324 1.704.467 0 1.553-.293 1.553-1.32 0-.617-.617-3.143-1.88-5.846-.323-.706-.88-1.88-1.408-1.88-.41 0-.646.352-.646.645M4.814 48.78c-.5-.118-3.347-.764-3.67-.764-.586 0-1.146.588-1.146 1.32 0 1.236.85 1.264 2.61 1.294a66.436 66.436 0 0 1 2.408 2.995c-.35.088-.527.206-.88.763-1.203 1.91-1.44 2.32-2.643 3.613C.527 59.03.41 59.15.41 59.38c0 .383.323.676.646.676.324 0 1.82-1.086 2.262-1.41 1.026 1.616 1.435 2.585 1.554 2.906.676 1.59.822 1.91 1.703 1.91.852 0 1.646-.672 1.646-1.407 0-.587-.205-.794-1.94-2.7-.525-.59-1.35-1.383-1.64-1.705.734-.617 1.616-1.35 1.88-1.82.498.792.998 1.586 1.556 2.702.264.557.557 1.172 1.408 1.172.94 0 1.763-.763 1.763-1.555 0-.737-.764-1.56-2.173-3.117-1.998-2.2-3.172-3.317-4.2-4.285 1.116.057 3.32.262 4.17.38-.116.324-.704 1.762-.704 1.966 0 .354.263.648.645.648.38 0 1.174-1.028 1.528-1.468.116-.177 1.732-2.262 1.732-3.113 0-.822-.735-1.47-1.47-1.47-.85 0-.97.47-1.38 2.174-.233-.058-1.468-.38-1.732-.44v-11.3c0-.53 0-1.853-1.438-1.853-1.41 0-1.41 1.356-1.41 1.82v10.69z" fill="#b5206f"/></g></svg>