<svg xmlns="http://www.w3.org/2000/svg" width="620.632" height="50.081" viewBox="0 0 620.632 50.081"><path d="M14.88 42.801c0 3.521.96 4.32 7.44 4.32v2.16H0v-2.16c4.4 0 5.92-.4 5.92-4.24V7.2C5.92 3.36 4.4 2.96 0 2.96V.8h30.641c4.08 0 5.52-.159 6.8-.399l.24 13.68h-1.84c-1.04-10-3.52-10.88-12.8-10.88h-8.16v19.841h6.64c6.32 0 6.72-1.04 7.2-6.001h1.76v14.48h-1.76c-.48-4.96-.88-5.92-7.2-5.92h-6.64v17.2zM42.159 49.281v-2.16c4.4 0 5.92-.4 5.92-4.24V7.2c0-3.84-1.52-4.24-5.92-4.24V.8h20.8v2.16c-4.4 0-5.92.4-5.92 4.24v35.681c0 3.84 1.52 4.24 5.92 4.24v2.16h-20.8zM110.16 50.081L77.04 8.96v33.681c0 3.921 2.72 4.48 7.28 4.48v2.16h-17.6v-2.16c4.56 0 7.12-.56 7.12-4.48V5.28c-2.16-2.16-3.68-2.32-7.12-2.32V.8h15.6l25.441 32.721V7.44c0-3.92-2.72-4.48-7.28-4.48V.8h17.6v2.16c-4.56 0-7.12.561-7.12 4.48v42.641h-.801zM133.918 49.281h-17.52v-2.16c4.64 0 6.72-.64 8.16-4.56L140.399.4h4.4l17.041 42.48c1.52 3.761 2.24 4.24 5.68 4.24v2.16h-20.321v-2.16c6.24 0 6.8-.479 5.28-4.24L147.439 30h-15.2l-4.48 12.48c-1.44 3.84.8 4.64 6.16 4.64v2.161zm-.719-21.921h13.2L139.519 10l-6.32 17.36zM213.118 50.081L179.998 8.96v33.681c0 3.921 2.72 4.48 7.28 4.48v2.16h-17.201v-2.16c4.24 0 6.72-.56 6.72-4.48V5.36c-2.4-2.24-4.24-2.4-8.16-2.4V.8h16.641l25.44 32.721V7.44c0-3.92-2.72-4.48-7.28-4.48V.8h17.601v2.16c-4.56 0-7.12.561-7.12 4.48v42.641h-.801zM262.238.72h1.2l.72 14.48-1.84.08c-1.2-8.32-5.6-12.64-13.681-12.64-8.96 0-15.84 7.68-15.84 19.52 0 15.121 9.521 23.681 19.521 23.681 4.32 0 8.24-1.199 12-5.279l1.36 1.439c-3.12 4.4-9.2 8.08-17.44 8.08-12.24 0-24.641-9.2-24.641-24.641 0-14.88 11.28-25.44 24.961-25.44 6.48 0 9.92 2.8 11.68 2.8.96 0 1.52-.72 2-2.08zM269.676 49.281v-2.16c4.4 0 5.92-.4 5.92-4.24V7.2c0-3.84-1.52-4.24-5.92-4.24V.8h20.8v2.16c-4.4 0-5.92.4-5.92 4.24v35.681c0 3.84 1.52 4.24 5.92 4.24v2.16h-20.8zM310.156 49.281h-16.32v-2.16c3.6 0 5.52-.64 6.96-4.56L316.636.4h4.4l17.041 42.48c1.52 3.761 2.238 4.24 5.68 4.24v2.16h-20.32v-2.16c6.24 0 6.799-.479 5.279-4.24L323.677 30h-15.201l-4.48 12.48c-1.44 3.84.8 4.64 6.16 4.64v2.161zm-.72-21.921h13.2L315.756 10l-6.32 17.36zM347.115 49.281v-2.16c4.4 0 5.92-.4 5.92-4.24V7.2c0-3.84-1.52-4.24-5.92-4.24V.8h20.721v2.16c-4.4 0-5.84.4-5.84 4.24v36.001c0 3.2 1.6 3.6 4.24 3.6h2.48c9.359 0 12.4-1.359 14.959-12.08l1.762.24-1.521 14.32h-36.801zM447.916.4l.24 14.48h-1.842c-1.039-10.4-3.52-11.68-12.799-11.68h-2.961v39.601c0 3.761 1.439 4.32 7.439 4.32v2.16h-23.92v-2.16c6 0 7.52-.56 7.52-4.32V3.2h-2.959c-9.281 0-11.76 1.28-12.801 11.681h-1.84l.24-14.48c1.279.24 2.721.399 6.801.399h30.08c4.081 0 5.52-.159 6.802-.4zM452.634 49.281v-2.16c4.4 0 5.92-.4 5.92-4.24V7.2c0-3.84-1.52-4.24-5.92-4.24V.8h20.801v2.16c-4.4 0-5.922.4-5.922 4.24v35.681c0 3.84 1.521 4.24 5.922 4.24v2.16h-20.801zM535.996.8v2.16c-4.4 0-6.32.24-5.92 4.08l3.76 36.001c.4 3.68 1.84 4.08 6.16 4.08v2.16h-20.721v-2.16c4.32 0 5.84-.4 5.52-4.08L520.875 5.2l-15.279 44.881h-.641L490.154 5.2l-3.68 37.761c-.4 3.84 2.24 4.16 6.641 4.16v2.16h-16.16v-2.16c4.398 0 5.92-.72 6.24-4.16l3.68-35.921c.4-3.84-1.521-4.08-5.92-4.08V.8h17.039l10.24 33.121L519.275.8h16.721zM574.714 31.521h-1.762c-.479-4.96-.879-5.92-7.199-5.92h-7.361v17.601c0 3.2 1.602 3.6 4.24 3.6h4c9.361 0 12.4-1.359 14.961-12.08l1.76.24-1.68 14.32h-38.16v-2.16c4.4 0 5.92-.4 5.92-4.24V7.2c0-3.84-1.52-4.24-5.92-4.24V.8h36.641l.16 12.081h-1.84c-1.121-8.561-3.281-9.601-12.881-9.601h-7.201v19.761h7.361c6.32 0 6.721-1.04 7.199-6.001h1.762v14.481zM613.273 39.281c0-4.4-2.801-6.641-7.602-9.28l-7.68-4c-5.76-3.12-9.199-6.48-9.199-12.561 0-7.601 6.479-13.44 14.959-13.44 5.84 0 8.801 2.8 10.48 2.8 1.121 0 1.6-.72 2.08-2.08h1.361l.719 13.601-1.76.08c-.961-6.561-5.68-11.681-12.32-11.681-4.961 0-8.32 2.961-8.32 7.2 0 4.641 3.52 6.48 7.361 8.641l6.639 3.521c6.24 3.359 10.641 6.8 10.641 13.28 0 8.56-7.359 14.72-16.641 14.72-6.48 0-9.68-3.12-11.439-3.12-1.121 0-1.68.96-2.16 2.48h-1.361l-.959-14.48 1.76-.24c1.359 8.96 7.6 12.721 13.84 12.721 5.201-.002 9.601-2.322 9.601-8.162z"/></svg>