<svg version="1.1" id="レイヤー_1" xmlns="http://www.w3.org/2000/svg" x="0" y="0" viewBox="0 0 147.5 21" xml:space="preserve"><style>.st0{fill:#c7302f}</style><path d="M61.6 4.8v15.4h-5.4V4.8h-5.1V.6h15.6v4.2zM77.5 13.3h-2.2v6.9H70V.6h7.7c5.1 0 7.7 2.3 7.7 6.2 0 2.6-1.2 4.4-3.2 5.3l4.3 7.9v.3H81l-3.5-7zm-2.2-8.9v5.3h1.9c2.3 0 3.1-1 3.1-2.7 0-1.8-.9-2.6-3.2-2.6h-1.8zM89.5.6h12.8v3.9h-7.5v3.8h6.4v3.8h-6.4v4.3h7.7v3.8h-13zM120.9 20.6l-9.8-11.2v11h-4.6V.6h3.2l9.7 11V.8h4.5v19.8zM128.3.6h7.1c6.3 0 11.2 2.9 11.2 10s-4.9 9.8-11.2 9.8h-7.1V.6zm5.3 4v11.8h1.4c3.6 0 6-1.4 6-5.8 0-4.3-2.4-6-6-6h-1.4zM10.4 15.8v1.1H8.3v-1H2.6v1H.5V5.5 4.4h9.9v11.4zM2.6 9.1h5.8V6.2H2.6v2.9zm5.7 1.8H2.6v3.2h5.8v-3.2zM17.2 16.3v.7h-1.7v-5.9c-.6.1-1.1.1-1.5.1-.2 0-.5.1-.7.1l-.2-1.7h1.3c.3-.3.5-.6.8-1-.6-.7-1.3-1.5-2-2.1l.9-1.4.5.5c.6-.8 1.1-1.7 1.3-2.3l1.5.9c-.1.1-.1.2-.2.2-.4.7-.9 1.6-1.5 2.4.2.2.3.4.5.6.8-1.1 1.4-2.1 1.6-2.8l1.4.9c-.1.1-.1.2-.2.2-.6 1-1.7 2.5-2.7 3.8.5 0 .9-.1 1.3-.1-.1-.4-.2-.8-.4-1.1l1.3-.3c.3.7.7 2 .9 3.2-.4.1-1 .3-1.4.4 0-.2-.1-.4-.1-.7-.2 0-.5 0-.7.1v5.3zm-3.5-4.4c.5.1 1 .2 1.4.2v.3c0 1.6-.2 2.8-.5 3.9-.2-.1-.9-.4-1.4-.5.3-1.1.5-2.4.5-3.9M25.9 15h1v1.8h-8.2V15l-.8.2c0-1.1-.2-2.5-.4-3.2l1.3-.3c.2.7.5 2 .6 3.2-.1 0-.3.1-.6.2h3.4v-1.6h-2.4v-1.7h2.4v-.9-.5c.4 0 1.6 0 2 .1v1.4h2.5v1.7H24V15h1.9zm-4.3-6.7c-.6-.6-1.1-1.4-1.5-2.4h-.8V4.2h5.6l.1-.1c.4.2 1 .8 1.5 1.3-.1 0-.1.1-.2.1-.4 1.2-1.1 2.1-1.8 2.9.6.3 1.5.5 2.4.6-.2.5-.6 1.3-.7 1.7-1.1-.3-2.2-.6-3.1-1.2-.9.6-2 .9-3.1 1.2-.1-.4-.6-1.3-.8-1.8.8-.1 1.7-.3 2.4-.6m2.8-2.4h-2.5c.3.6.7 1.2 1.2 1.6.6-.5 1-1 1.3-1.6"/><path class="st0" d="M31.6 20.3h.8L43.2.6h-.8zM33 20.3h.8L44.6.6h-.8zM34.3 20.3h.8L45.9.6h-.8zM35.7 20.3h.8L47.3.6h-.8zM37.1 20.3h.8L48.7.6h-.8z"/><g><path class="st0" d="M35 5.5l1.9 3.7.3-.6-1.7-3.1h.5l1.4 2.7.3-.6-1.2-2.1h.4l1 1.7 1.6-3.3L37.7.6h-6.4l5.2 9.6.2-.5-2.2-4.2z"/></g><g><path class="st0" d="M43.5 20.3h.6l-2.6-4.7-.3.5zM42.6 20.3h.5l-2-3.8-.3.5zM41.7 15.1l2.8 5.2h.6l-3.2-5.7zM42.2 14.1l3.3 6.2H49l-5.2-9.6z"/></g></svg>