<svg viewBox="0 0 97 25" xmlns="http://www.w3.org/2000/svg"><g fill-rule="nonzero" fill="none"><path d="M46.965 12.342a5.653 5.653 0 0 0-1.227-2.107 5.81 5.81 0 0 0-2.145-1.413 5.074 5.074 0 0 0-.305-.11 7.245 7.245 0 0 0-.215-.834 5.532 5.532 0 0 0-1.227-2.11A5.806 5.806 0 0 0 39.7 4.354a8.399 8.399 0 0 0-3.098-.515H30.01v12.155c.026.237-.022.476-.138.684-.088.112-.298.162-.624.162v.365h4.654v3.253c.025.237-.023.476-.136.686-.09.108-.3.165-.624.165v.362h7.353a8.342 8.342 0 0 0 3.098-.515 5.81 5.81 0 0 0 2.145-1.413 5.62 5.62 0 0 0 1.227-2.126 8.51 8.51 0 0 0 .396-2.621 8.527 8.527 0 0 0-.396-2.653zm-5.496-1.819a6.306 6.306 0 0 1-.29 1.93 4.17 4.17 0 0 1-2.522 2.656 6.494 6.494 0 0 1-2.419.407h-.45V10.01h4.342c.443-.004.885.029 1.323.097.016.139.016.277.016.417zm-9.573 4.993V5.538h4.342a6.492 6.492 0 0 1 2.417.398 4.092 4.092 0 0 1 2.419 2.383 11.41 11.41 0 0 0-.58-.014h-6.592v7.211h-2.006zm13.17 1.419a4.261 4.261 0 0 1-.91 1.575c-.451.47-1.002.831-1.612 1.058a6.466 6.466 0 0 1-2.414.393h-4.342v-2.76h.815a8.342 8.342 0 0 0 3.098-.514 5.772 5.772 0 0 0 2.145-1.414 5.534 5.534 0 0 0 1.227-2.123c.232-.735.36-1.499.384-2.269.256.17.49.372.698.598.414.455.725.994.91 1.58a6.561 6.561 0 0 1 0 3.864v.012z" fill="#B50F18"/><path d="M9.102 20.571l.026 1.004H7.221v-.884H1.907v.884H0c.014-.28.026-.656.026-1.004v-9.533c0-.362 0-.739-.026-1.005h9.128c-.014.333-.026.643-.026 1.005v9.533zm-7.195-6.18h5.305v-2.688H1.907v2.689zm5.295 1.669H1.907v2.929h5.305l-.01-2.93zM16.552 20.998c0 .2 0 .429.014.603H14.97c.025-.2.034-.402.03-.603v-4.75c-.551.053-1.047.093-1.369.12-.16.014-.455.066-.63.095l-.202-1.542a7.7 7.7 0 0 0 .818 0c.112.001.224-.004.336-.015.238-.28.496-.588.75-.924a25.605 25.605 0 0 0-1.823-1.907l.832-1.273c.12.122.267.282.415.441A9.393 9.393 0 0 0 15.29 9.14l1.354.805c-.057.064-.11.13-.16.2-.41.767-.877 1.502-1.394 2.2.148.174.296.348.429.522a13.923 13.923 0 0 0 1.501-2.533l1.33.782a1.58 1.58 0 0 1-.188.226c-.591.953-1.554 2.307-2.452 3.458.429-.038.858-.079 1.218-.12a8.563 8.563 0 0 0-.334-1.005l1.177-.303c.367.939.654 1.907.858 2.894-.388.121-.898.27-1.301.376-.026-.188-.067-.402-.107-.617-.2.014-.43.04-.67.067v4.907zm-3.163-4.08c.43.067.937.148 1.287.214 0 .055-.028.148-.04.267a14.152 14.152 0 0 1-.458 3.554 72.528 72.528 0 0 0-1.284-.496c.321-.913.476-2.119.495-3.54M24.591 19.8c.374 0 .684 0 .936-.026v1.668c-.252-.026-.562-.026-.936-.026h-5.694c-.362 0-.681 0-.953.026v-1.656l-.75.214c-.041-1-.162-1.994-.363-2.974l1.156-.317c.25.954.425 1.926.522 2.908-.081.026-.282.093-.51.147.255.027.564.027.898.027h2.171v-1.452h-1.365c-.322 0-.577 0-.818.015v-1.557c.239.015.496.015.818.015h1.365v-.832c0-.12-.012-.348-.026-.477.389 0 1.43.04 1.809.067 0 .121-.026.295-.026.415v.831h1.449c.32 0 .589 0 .815-.014v1.552c-.238-.015-.496-.015-.815-.015h-1.45v1.468l1.767-.007zm-3.964-6.165a6.044 6.044 0 0 1-1.353-2.238c-.255 0-.496 0-.699.012v-1.54c.215.014.477.014.74.014h4.368l.121-.135c.499.351.969.742 1.406 1.167-.052.038-.133.067-.2.108a6.309 6.309 0 0 1-1.668 2.652 9.343 9.343 0 0 0 2.183.563c-.2.476-.508 1.234-.63 1.608-1.005-.238-2.049-.55-2.86-1.084-.824.517-1.81.803-2.842 1.084-.134-.388-.51-1.165-.737-1.668a8.751 8.751 0 0 0 2.171-.55m2.56-2.238h-2.252c.243.561.61 1.06 1.072 1.46.51-.382.92-.883 1.192-1.46M61.417 16.946c0 1.066-.383 1.788-1.175 2.212-.79.424-1.928.656-3.305.656-1.378 0-2.495-.222-3.308-.656-.813-.434-1.178-1.149-1.178-2.212v-8.58h-2.164v8.974a3.63 3.63 0 0 0 .62 2.159 4.43 4.43 0 0 0 1.592 1.366 6.935 6.935 0 0 0 2.145.679c.76.119 1.528.18 2.298.18a15.053 15.053 0 0 0 2.292-.18 6.912 6.912 0 0 0 2.145-.68 4.419 4.419 0 0 0 1.595-1.365 3.651 3.651 0 0 0 .62-2.16V9.68c0-.402.18-.652.45-.652h.171V8.33h-2.798v8.615zM80.908 20.867c-.1-.102-.18-.222-.238-.353L75.612 9.742a6.011 6.011 0 0 0-.138-.308l-.536-1.103h-2.83l-.547 1.315-4.679 10.725-.605 1.342h2.1l.517-1.192c.09-.159.176-.332.257-.522l.954-2.145h6.978l1.856 3.859h2.665v-.715s-.51.057-.696-.131zm-4.726-5.005h-5.243l2.524-5.639 2.719 5.639zM96.194 18.803v.174c0 .388-.021.491-.114.589a.634.634 0 0 1-.455.128H86.48V8.302h-2.188V21.7h12.603v-2.896h-.7z" fill="#000"/></g></svg>