<svg version="1.1" id="レイヤー_1" xmlns="http://www.w3.org/2000/svg" x="0" y="0" viewBox="0 0 288 51.5" xml:space="preserve"><style>.st0{fill:#0076bf}</style><path class="st0" d="M44.1 5.9v2c-.3-.4-.6-.9-.9-1.3L38.7 0h-3.1v13.9h3.2V5.8c.3.5.7 1 1.1 1.6l4.5 6.6h2.9V0h-3.2v5.9zM50.5 0h3.3v13.9h-3.3V0zm18.2 0h-4.3l-4.1 4.6V0H57v13.9h3.3V8.7l.4-.4 4.2 5.6h4L63 6.1 68.7 0zM82 0h-4.3l-4.1 4.6V0h-3.3v13.9h3.3V8.7l.4-.4 4.2 5.6h4l-5.9-7.8L82 0zm4.9 8.1h5.2V5.2h-5.2V2.9h5.6V0h-8.9v13.9h9.2V11h-5.9V8.1zM95 0h3.3v13.9H95V0zM23.3 40.4L26.9 51h6.5l-2.9-7.1-11.8-32.5-3.9.8L0 51h5.5l3.7-10.6h14.1zm-7.3-18l.5-1.7.5 2.1 4.7 13.1H10.9L16 22.4zM57.8 51h5.3l-.6-3.7V19.7H57l.8 4.4V51zm26.9-8.5l3.1 8.5h5.6l-2.7-6.1-10-25.8-2.9.6L65.1 51h4.5l3.2-8.5h11.9zm-6.2-13.8l.4-1.2 4.3 11.1h-8.8l4.1-9.9zM118.8 51h3.1l-.4-3.7V19.7h-5.2l.6 4.4v17.5l-1.8-2.5-16.8-19.4h-3.2l.7 4.4V51h5.2l-.6-3.7V29.5l1.5 1.8L118.8 51zm29.9-14.9h.3L159.2 51h6.9l-11.9-16.4.5-.3c4.2-2.2 6.8-6.3 6.8-10.6 0-7.9-6.3-11.5-12.5-11.5h-10.8l.8 5.3v33.4h5.9l-.6-5.1V36h.5c2.4.1 3.3.1 3.9.1m-4.4-19.5h3.7c4 0 8 2.2 8 7.1 0 4.3-3.7 8-8 8h-3.7V16.6zm65.3 3.1l-7.9 20.4-1.1 3.3-.9-3.2-7.5-20.5h-6.5l3 5.4 9.6 25.8 3.7.6 12.6-31.8h-5zm8 31.3h5.5l-.6-3.7V19.7h-5.7l.8 4.4V51zm14.3-3.9V36.8h9.5l1.3-3.9h-10.8v-9.3h11.5l-2-3.9h-15.2l.8 4.4V51h16.5l1.3-3.9h-12.9zm-58.5 0V36.8h9.5l1.3-3.9h-10.8v-9.3h11.5l-2.1-3.9h-15.1l.7 4.4V51H185l1.2-3.9h-12.8zM283 19.7l-7.6 20.4-1 3.3-1-3.1-7.2-20.6h-5.1l3.2 8.3-4.5 12.1-1.1 3.4-.8-3.3-7.3-20.5h-6.4l2.9 5.4 9.2 25.8 3.2.6 6-15.7.7-2.6.7 2.3 5.5 15.4 3.4.6L288 19.7h-5zM35.2 49.2l.5-5.1.5.4c1.3 1 2.6 1.7 4 2.1 1.3.5 2.6.7 3.8.6 1.2-.1 2.3-.4 3.2-.9 1-.5 1.7-1.3 2.2-2.1.5-.9 1-3.4-1.2-5-.3-.2-.6-.5-1-.7s-.8-.4-1.3-.7l-1-.5-2.5-1c-1.2-.5-2.1-.9-2.8-1.3-.6-.3-1.2-.7-1.7-1.1-.9-.7-1.6-1.5-2-2.5-.5-.9-.7-1.9-.8-2.9-.1-1.4.3-2.8 1.1-4.1.8-1.3 2-2.4 3.6-3.3s3.4-1.3 5.3-1.4c1.8-.1 3.8.2 6.1.8l1.2.4 1.2.5-1.5 4.8-1.4-.9c-1-.6-2-1-3-1.3s-1.9-.4-2.8-.3c-1.4.1-2.5.5-3.4 1.2s-1.2 1.2-1.4 2.4c-.3 2.7 2.3 4 3.5 4.5l.7.3 3.1 1.3c1.1.5 2 .9 2.7 1.3.7.4 1.3.8 1.8 1.2.9.8 1.6 1.6 2 2.6.5 1 .7 2.1.8 3.2.1 1.6-.3 3.2-1.1 4.7s-2 2.6-3.6 3.5-3.5 1.3-5.7 1.5h-2c-.8 0-1.6-.2-2.4-.3-.9-.2-1.8-.5-2.9-.9l-.7-.3-.6-.3-.5-.4z"/></svg>