<svg viewBox="0 0 95 25" xmlns="http://www.w3.org/2000/svg"><g fill-rule="nonzero" fill="none"><path d="M74.469 5.064a2.503 2.503 0 0 0-1.372.071c-.878.264-1.861 0-1.724.555.055.219.215.853.432 1.009.212.16.44.293.679.399-.62 3.59-1.328 6.565-1.884 10.37-.134.925-.45 2.983-.515 3.944a1.763 1.763 0 0 0-.961.45c-.504.4-.66 1.148-.363 1.748.29.538.656.737 1.331.737.086.006.172.006.258 0 .797-.138 1.395-.873 1.434-1.758.322-.14 1.048-.623 1.088-1.017.033-.304-.276-.32-.664-.343h-.25s0-.34.029-.491c.123-1.687 2.25-13.692 2.25-13.692.024-.066.044-.134.058-.204.123-.04.885-1.63.174-1.778zm-4.5 17.995c-.178.028-.236 0-.305-.115a.87.87 0 0 1 .624-.4c.02.234-.113.45-.319.515z" fill="#AC903C"/><path d="M38.823 8.581h1.39c.04 0 .076.022.095.059l8.059 12.864a.132.132 0 0 1 .004.127.118.118 0 0 1-.103.065h-2.035a.12.12 0 0 1-.099-.054l-1.896-2.957a.102.102 0 0 0-.095-.055h-9.428a.105.105 0 0 0-.091.05l-2.035 2.958a.11.11 0 0 1-.091.054h-2.019a.118.118 0 0 1-.103-.068.132.132 0 0 1 .008-.129l8.34-12.863a.12.12 0 0 1 .1-.05zm.673 2.555h-.047l-3.337 5.094a.132.132 0 0 0-.008.128c.02.041.06.068.103.069h6.369a.118.118 0 0 0 .103-.066.132.132 0 0 0-.004-.127l-3.179-5.098zM85.37 8.523h1.398a.11.11 0 0 1 .095.054l8.122 12.985c.02.03.021.068.005.1a.09.09 0 0 1-.08.051H92.81a.113.113 0 0 1-.095-.055l-1.904-2.973a.12.12 0 0 0-.099-.055h-9.468c-.04 0-.077.02-.1.055l-2.042 2.973a.11.11 0 0 1-.095.055h-2.086a.09.09 0 0 1-.077-.053.101.101 0 0 1 .006-.098l8.415-12.985a.12.12 0 0 1 .103-.054zm.677 2.563H86l-3.42 5.224a.062.062 0 0 0-.004.06c.009.018.027.03.047.032h6.638c.02-.001.039-.014.048-.033a.062.062 0 0 0-.004-.06l-3.258-5.223zM52.25 8.666a.125.125 0 0 1 .033-.091.111.111 0 0 1 .086-.036h4.524c2.248.042 3.523-.192 5.577.616 1.275.542 2.112 1.847 2.118 3.3-.047 2.405-2.77 3.545-4.354 3.725a.03.03 0 0 0-.018.027.03.03 0 0 0 .018.027l5.003 5.244a.13.13 0 0 1 .03.14.119.119 0 0 1-.113.078h-2.272a.139.139 0 0 1-.083-.038l-4.984-5.13a.112.112 0 0 0-.083-.038H54.3a.116.116 0 0 0-.084.036.13.13 0 0 0-.034.09v4.95c0 .072-.055.13-.123.13h-1.694a.116.116 0 0 1-.086-.038.13.13 0 0 1-.033-.092l.004-12.9zm1.935 5.578a.13.13 0 0 0 .034.092.116.116 0 0 0 .085.038h1.98c.649 0 1.326 0 2.022-.037.648-.016 1.292-.09 1.928-.222a3.832 3.832 0 0 0 1.449-.595c.374-.25.593-.693.574-1.16a1.374 1.374 0 0 0-.42-1.048 2.754 2.754 0 0 0-1.108-.586 6.884 6.884 0 0 0-1.536-.285c-.57-.046-1.14-.071-1.718-.071h-3.167a.116.116 0 0 0-.085.038.13.13 0 0 0-.033.092l-.005 3.744zM9.07 20.57l.035 1.048h-1.92v-.922H1.912v.922H0c0-.298.028-.692.028-1.06V10.504c0-.381 0-.775-.028-1.06h9.104c0 .352-.024.679-.024 1.06L9.07 20.569zm-7.157-6.492h5.272v-2.848H1.912v2.848zm5.272 1.768H1.912v3.078h5.272v-3.078zm9.306 5.168v.637h-1.583c.024-.211.033-.424.028-.637v-5c-.55.054-1.041.1-1.362.125-.162 0-.455.071-.63.1l-.201-1.625h1.152c.237-.297.49-.624.748-.976a30.418 30.418 0 0 0-1.817-2.023l.827-1.34c.119.125.265.297.416.465.475-.685.865-1.43 1.16-2.22l1.35.837c-.06.066-.115.138-.163.214-.404.806-.863 1.58-1.373 2.316.15.185.297.365.427.549a14.57 14.57 0 0 0 1.496-2.668l1.322.837a1.443 1.443 0 0 1-.186.24c-.585 1.005-1.547 2.429-2.442 3.648l1.215-.13a9.292 9.292 0 0 0-.336-1.06l1.187-.323c.366.99.652 2.01.855 3.05-.395.13-.894.285-1.294.419-.028-.197-.067-.42-.107-.65-.202 0-.427.042-.669.072l-.02 5.143zm-3.166-4.293c.427.071.934.155 1.282.226 0 .055-.027.155-.04.28a15.772 15.772 0 0 1-.455 3.746c-.225-.101-.855-.352-1.282-.524.344-1.209.511-2.466.495-3.728m11.15 3.037c.312.007.624-.003.935-.03v1.756a8.744 8.744 0 0 0-.935-.03h-5.648c-.36 0-.677 0-.946.03v-1.739l-.748.226a20.378 20.378 0 0 0-.36-3.137l1.147-.327c.251 1.006.426 2.031.523 3.067a4.93 4.93 0 0 1-.51.154c.297.026.595.036.894.03h2.153v-1.542h-2.165V16.59h2.165v-.838c0-.13 0-.368-.028-.51.396 0 1.43.041 1.805.07a4.032 4.032 0 0 0-.015.44v.838h2.256v1.642H22.74v1.542l1.733-.017zm-3.922-6.518a6.505 6.505 0 0 1-1.35-2.358h-.693V9.285h5.087l.118-.142c.497.37.966.78 1.402 1.227a2.2 2.2 0 0 1-.198.113 6.71 6.71 0 0 1-1.67 2.798c.7.29 1.43.49 2.176.595a24.343 24.343 0 0 0-.625 1.696 8.975 8.975 0 0 1-2.858-1.143 10.17 10.17 0 0 1-2.818 1.143c-.135-.419-.507-1.231-.737-1.755a8.39 8.39 0 0 0 2.166-.578m2.549-2.358h-2.245a4.267 4.267 0 0 0 1.07 1.537c.509-.4.917-.929 1.187-1.537" fill="#000"/></g></svg>