<svg version="1.1" id="レイヤー_1" xmlns="http://www.w3.org/2000/svg" x="0" y="0" viewBox="0 0 241 41" xml:space="preserve"><style>.st0{fill:#0062b1}</style><path d="M113.9 10.4c0-.6-.5-1.2-1.2-1.2h-7.3c-.6 0-1.2-.5-1.2-1.2V2.4c0-.6.5-1.2 1.2-1.2H131c.6 0 1.2.5 1.2 1.2V8c0 .6-.5 1.2-1.2 1.2h-7.3c-.6 0-1.2.5-1.2 1.2v29.2c0 .6-.5 1.2-1.2 1.2H115c-.6 0-1.2-.5-1.2-1.2V10.4zM139.1 2.4c0-.6.5-1.2 1.2-1.2h22.6c.6 0 1.2.5 1.2 1.2v5.4c0 .6-.5 1.2-1.2 1.2h-14c-.6 0-1.2.5-1.2 1.2v5.7c0 .6.5 1.2 1.2 1.2h11c.6 0 1.2.5 1.2 1.2v5.4c0 .6-.5 1.2-1.2 1.2h-11c-.6 0-1.2.5-1.2 1.2v6c0 .6.5 1.2 1.2 1.2h14.3c.6 0 1.2.5 1.2 1.2v5.4c0 .6-.5 1.2-1.2 1.2h-22.9c-.6 0-1.2-.5-1.2-1.2V2.4zM211.5 2.4c0-.6.5-1.2 1.2-1.2h6.4c.6 0 1.2.5 1.2 1.2v13.3c0 .6.5 1.2 1.2 1.2h9.3c.6 0 1.2-.5 1.2-1.2V2.4c0-.6.5-1.2 1.2-1.2h6.4c.6 0 1.2.5 1.2 1.2v37.2c0 .6-.5 1.2-1.2 1.2H233c-.6 0-1.2-.5-1.2-1.2V26c0-.6-.5-1.2-1.2-1.2h-9.3c-.6 0-1.2.5-1.2 1.2v13.5c0 .6-.5 1.2-1.2 1.2h-6.4c-.6 0-1.2-.5-1.2-1.2V2.4zM170.8 20.9v-.1c0-11.2 7.9-20.4 19.1-20.4 6.5 0 10.6 2.2 13.9 5.5.2.2.4.8 0 1.3l-.1.1-3.5 4.4s-.3.4-.7.6c-.5.2-.9 0-1-.1-2.7-2.3-4.9-3.7-8.3-3.7-6.2 0-10.3 5.6-10.3 12.4v.1c0 6.8 4 12.3 10.3 12.3 4 0 5.9-1.5 8.8-4.2.1-.1.5-.2.7-.1.4.1.6.4.6.4l3.9 4.2s.2.2.2.6c0 .3-.2.6-.3.7-3.8 4-7.5 6.4-14.4 6.4-10.9-.1-18.9-9.1-18.9-20.4z"/><path class="st0" d="M83.8 20.8l-16-18.7c-.5-.6-1.1-1.1-2.3-1.1H56c-.5 0-.8.7-.4 1.1l15.9 18.7-15.9 18.7c-.3.4-.1 1.1.4 1.1h9.6c1.1 0 1.7-.5 2.3-1.1l15.9-18.7z"/><path d="M98.8 1.1h-9.6c-1.1 0-1.5.3-2.1.9l-7.4 8.6 6.1 7.2L99.2 2.1c.4-.4.2-1-.4-1zM99.2 39.5L85.9 23.9l-6.1 7.2 7.4 8.6c.5.6 1.3.8 2 .8h9.6c.5.1.8-.6.4-1z"/><g><path class="st0" d="M17.7 11.4V30l.1 1.8h-3.2V30H3.7v1.8H.5c0-.7.1-1.3.1-1.8V11.4c0-.5 0-1.1-.1-1.8h17.2v1.8zm-3.2 1.1H3.7v5.7h10.8v-5.7zM3.7 27.2h10.8V21H3.7v6.2zM29.9 21.1v9.6c0 .5 0 .9.1 1.1h-2.7V21.4c-1.2.1-2.1.2-2.9.3l-1.1.2-.3-2.7h2.1c.6-.7 1.2-1.4 1.7-2.1-1.1-1.3-2.3-2.6-3.6-3.8l1.4-2.1.9.9c.5-.7 1-1.5 1.5-2.3.5-.8.8-1.5.9-1.9l2.3 1.5c-.1.1-.2.2-.3.4-.6 1.1-1.5 2.5-2.7 4.3.3.4.7.8 1 1.1 1.5-2.3 2.5-3.9 2.9-5l2.3 1.5-.5.3c-.4.7-.9 1.5-1.5 2.4-.6.9-1.2 1.8-1.8 2.6-.6.8-1.1 1.4-1.5 2 1.3-.1 2.2-.2 2.8-.3-.2-.7-.5-1.4-.7-2l2-.6c.3.6.6 1.4 1 2.4s.6 2 .8 2.9l-2.3.7-.2-1.3-1.6.3zm-6.8 8.4c.3-.9.5-1.9.7-3 .2-1.1.3-2.3.3-3.7l2.3.4-.1.5c-.1 2.8-.5 5.1-1.1 6.8-.7-.4-1.5-.7-2.1-1zm9.5-6.9c.2.6.4 1.4.6 2.5.2 1.1.4 2.1.5 3.2l-2.3.7c0-.8-.1-1.7-.3-2.8-.2-1.1-.3-2.1-.5-3l2-.6zm13.1 6.2c.8 0 1.4 0 1.7-.1v2.8c-.3 0-.9-.1-1.7-.1H34.6c-.8 0-1.4 0-1.7.1v-2.8c.3 0 .9.1 1.7.1h4.5v-3.3h-4.4v-2.7h4.4v-1.9L39 20h1.6c.7 0 1.1.1 1.4.1 0 .3-.1.5-.1.8v1.9h4.5v2.7h-4.5v3.3h3.8zM33.9 17.9c1.6-.3 3.1-.7 4.5-1.3l-1.2-1.5c-.4-.5-.7-1.1-1-1.6-.3-.5-.5-1-.6-1.5H34V9.4h10l.3-.3c.9.6 1.7 1.3 2.5 2l-.4.2c-.2.5-.4 1-.7 1.6s-.7 1.2-1.2 1.9c-.5.6-1 1.2-1.5 1.7 1 .5 2.5.9 4.5 1.3-.4 1-.8 1.9-1 2.7-1.2-.3-2.2-.6-3.1-.9-.9-.3-1.8-.7-2.5-1.3-.5.4-1.2.7-2.1 1.1-.9.4-2 .7-3.5 1.1-.4-.4-.8-1.3-1.4-2.6zm9.4-5.9h-4.8c.3.6.6 1.2 1 1.8.4.5.8 1 1.3 1.4.5-.4 1-.9 1.4-1.5.4-.5.8-1.1 1.1-1.7z"/></g></svg>