<svg xmlns="http://www.w3.org/2000/svg" width="240" height="32.52" viewBox="0 0 240 32.52"><defs><clipPath id="a"><path d="M0 76.008h339.512V0H0v76.008z"/></clipPath></defs><g clip-path="url(#a)" transform="matrix(.907 0 0 -.907 -34.258 49.771)" fill="#332d2b"><path d="M294.293 48.922c.165.05.16-.23-.003-.174l.003.174m1.867-5.142c.162.01.108-.116.16-.178-.216-.038-.16.087-.16.178m-15.506-12.586c.164.033.097-.078.108-.138l-.163.002c-.02.073.034.093.05.136m-16.654 4.33c-.27-1.203-.39-3.17-.272-4.374.03-.282 2.54-.826 3.217 1.337.21.662 1.007 1.11 1.198 1.917.003.364.3.91.68 1.68.586.744.4 1.7-.56 1.467-.764.08-2.82.858-3.205.86-1.124.113-1.015-2.692-1.058-2.88m17.888 12.648c-7.74-.203-9.6-.623-11.903-.95-1.913-.364-4.964-.427-5.633-1.43.035-1.073.78-2.016.356-3.936.05-.48-.642-1.394.41-2.093.17-.315 2.043-.13 3.536-.21-.006-.304 1.9-.12 1.784.75.155.792-.175 2.175-.215 2.985-.47.21-1.18.735-.784 1.148 3.575.554 6.217-.785 6.414-1.204.923-.977-.852-2.047-1.377-2.978-.324-.71.28-1.31 1.344-1.538.964-.115.65.04 1.66-.12.24-.025 1.454.11 1.118.537-.29.52-1.186.64-1.458 1.038-.08.393.076.562.572.71 1.58-.42 2.243-.325 4.14-.455 1.596.175 2.174.936 2.343 1.52-.08 1.405.293 1.966-1.67 2.972-.685.756-.015 1.46.872 1.403 3.065-.297 5.288-1.663 5.507-1.75 1.114-.444-.777-2.713-1.484-3.79-.1-1.22 1.007-.316 3.374-1.14.777-.152 2.067-.18 2.172.59.14 2.736.547 2.95.47 5.412-.358.44 1.18 1.614-2.257 2.692-.05-.017-5.96-.14-9.3-.164m9.476 2.075c.223-.1 1.775 1.625 3.384 1.564 2.11-.33 4.457-1.547 5.685-2.17 1.41-.953 1.453-1.114 1.63-1.76.15-.456-.197-1.447-.5-1.99-.334-.708-1.443-.662-2.114-3.354-.37-1.354.43-2.096.476-5.24.006-.305-.274-2.437-.266-2.75.01-.396-.468-3-.455-3.405.175-5.75 1.47-5.722 2.046-8.016.504-2-1.07-2.3-1.02-2.594-.72-.763-1.785-1.876-4.076-1.434-1.273.437-.823-.055-4.173 1.587-2.35 1.157-2.75 2.5-3.886 3.357-.78.693-1.637 1.188-2.417 1.92.05-.027.31.26.65.148 1.265-.423 3.984-1.442 4.964-1.64.24.086.827-.664 1.778.354.843 1.02.05 2.373-.057 3.186-.283 2.177.124 4.342-.124 5.236.095 2.48.715 4.56-.717 4.545-1.285.006-2.85.412-3.385.608-.607.22-1.452.248-1.882-.008-.98-.58-1.444-2.415-1.683-3.474-.726-1.087-1.552-2.577-2.014-3.086-1.306-.97-1.828-1.683-3.374-2.23-1.906-.07-4.127-.435-5.442-.26-.76.102-.53.73-.543.795.17-.028 2.828.333 4.654 1.647 3.204 1.03 2.636 2.844 3.57 3.97.43.83 1.67 1.875.708 2.9-.97.093-1.572-.03-2.657.006-.51-.485-.262-.98-1.375-1.513-1.5.097-2.316-.093-2.902.057-.894.31-1.595.12-1.932-.598-1.145-1.77.11-.95-1.38-2.83-2.26-1.89-1.084-1.884-2.993-3.604-.26-.06-2.793-.98-3.053-1.036-1.11-.4-.63-.06-1.816-.258-1.17-.21-1.274-.843-1.513-1.262-.36-.985-.072-1.61.61-3.08.13-.59-.105-.903-.496-1.657-1.238-1.31-4.04-2.007-4.84-1.137-.436.47-.89 1.3-.55 1.97.3 1.244.11 1.568-.29 2.45-.18.577-.924 1.06-.583 1.885.098-.61.143.025.84-.43.477-.255.93.1.945.347.215 1.66.22 2.737.74 5.085.852 4.77 1.52 6.153 1.312 9.124-.46 3.355-2.676 3.666-2.417 5.144.107.6-.214 3.31.21 3.303.524-1.123 1.88-2.425 2.956-2.58.738-.047 1.904.536 3.067.453.762-.08 4.346-.09 7.895.162 4.06.29 7.43.38 9.487.735 6.545.828 5.963.323 9.33.862M226.21 39.78c-.242-.344-1.08-.776-1.25-.945-.765-.738-2.432-.665-2.942-.534-1.37.888-.21.757-3.37 3.53-.497.71-.56.884-.196 1.066.943.003 1.028.065 1.95.094.47.014 1.093.1 1.432.053-.08.01.215.003.17-.004 1.265.14 1.77.18 3.413.316.02-.017 1.438.376 1.264.064-.786-1.4.487-1.992-.473-3.64m23.51-15.834c-1.504 1-3.466 2.622-5.6 3.363-1.216.39-1.56-.535-2.026-.38-3.33.485-12.106 3.276-14.612 6.06-.362.407-.73 1.21-.81 2.15.12 1.61 2.222 2.348 2.678 2.968.518.34 1.09 1.033 2.747 1.35.898.243 1.82 1.373 1.69 2.13-.923 1.095-1.76 1.324-2.02 1.475-.228.28-.47.285-.495.51-.156.614.975.7 1.018.736 3.027-.014 2.45.7 6.188.784 1.21.11 3.095-.37 4.887.024 3.257 1.397-.282 1.36-1.424 2.095-.787.507-1.672.874-2.217.773-.99-.027.165-.03-2.008-.813-1.734-.2-3.124-.584-3.863-.414-1.914-.234-2.108-.568-3.87-.72-1.164-.1-1.518-.16-2.65-.193-.58.053-.28 1.456.095 2.36.392.464.39 1.107.31 1.49-.117.687-3.206 1.696-4.257 1.846-1.016.144-3.165 1.203-4.11.83-.894-.293-1.71 1.016-2.233.9-1.274-.28-1.85-.625-1.83-1.233.015-.447.475-.87 1.38-1.59.615-.524 1.74-2.83 2.405-3.193.62-.34.997-1.402.186-1.694-.718-.086-3.137-.072-5.458-.37-3.26-.117-7.857-1.74-10.046-.844-1.206.01-.816-1.088-.352-1.338.778-.423 1.38-.998 2.32-.546 1.767.173 1.287.166 4.188.336 1.192.156 3.035.462 4.183.126.73-.498-1.742-.228.483-2.247.6-.584 1.404-.392 2.933-1.67 1.57-1.643 2.33-1.614 3.06-2.88.23-.64.51-.687-.07-1.615-.63-2.025-2.215-2.965-3.644-4.06-1.766-1.586-2.91-2.673-6.87-4.228-1.353-.578-3.22-1.058-5.98-1.378-.287-.033.01.477-.385.57-1.18.27-1.63-.7-2.464-.985l-.76-.525c-.01-.77.594-1.244 1.834-1.02.7-.114 1.23-.272 2.92-.304 1.685-.034 6.607 1.48 8.175 1.88.322.023 2.947 1.14 5.593 3.08.445.092 2.017 2.766 3.46 3.802.442.317 1.005.117 1.35.1.878-.046 1.858.035 3.545-1.734 2.04-1.757 5.994-3.09 6.522-3.508 3.86-1.774 5.302-3.536 7.177-3.73 7.12-1.366 8.15-.464 8.28-.435.265.06 1.652.465 1.652.465s.326 1.32-1.203 1.44" fill-rule="evenodd"/><path d="M77.82 40.256c-.04-.85-1.4-4.438-2.14-6.42-.643-1.744-2.256-.313-3.83-.29-.733.01-1.53-.59-2.076-.883-.543-.287-2.446-.243-3.256-.226-.814.014-2.015-.132-3.137-.327-1.12-.19-5.703-.7-7.95-.785-2.24-.086-4 1.232-3.974 2.73-.006.452-.112 1.134.14 1.462 1.11 1.44 6.27.504 6.983.56.85.072 2.236-.04 3.086-.055.736-.014 4.21-.07 5.433-.046 1.177.02 1.372.183 3.17.232 1.86.05 1.922 1.187 1.927 1.487.004.305-.416.74-1.032.79-.617.057-.848.147-2.043.428-1.19.278-2.076.597-3.24.318-1.163-.272-3.344-.983-4.607-1.07-1.26-.08-7.09-.2-8.812.17-.39.09-1.37.03-1.857.57-.326.36.01 1.056.01 1.572-.006 2.748 2.99 2.36 4.267 2.38 1.275.018 11.774.3 13.744.293 2.335-.006 2.87.41 3.7 1.277.796.875 1.085 1.03 1.66 1.055 2.377-.244 2.125-1.114 2.48-1.744.302-.54 1.514-1.02 1.46-2.132l-.102-1.34zm9.88 2.155c-.146.396-.53.677-.99.898-.46.223-1.14.96-1.422 1.74-.237.66-1.343 1.92-1.553 2.043-.842.486-.558.71-1.01 1.186-.46.48-1.526 1.09-2.33 1.618-.805.53-1.96.765-3.016-.11-1.06-.88-3.117-1.44-5.09-1.574-1.975-.13-7.355-.587-8.67-.69-1.318-.103-10.8-.86-11.765-.84-.968.017-5.918-.06-7.99.793l-5.876 1.393c-.507-.544-.2-1.338.337-2.05.543-.71 1.087-1.6.96-2.822-.124-1.228.283-2.113 1.17-2.8.886-.69 1.962-1.088 2.46-1.305.5-.214 1.522-.528 1.46-1.316-.068-.786-.31-.957-.498-1.244-.188-.29-.223-.783.245-1.173.465-.39 1.434-.99 1.397-1.694-.036-.7-.553-1.654-1.112-1.968-.56-.307-1.57-.93-1.574-1.284-.007-.35.884-.7 1.33-.753.87-.103 1.535-1.428 1.576-2.22.04-.79.35-1.294.557-1.475.205-.18.52-.563 1.603-.38 1.083.187 2.824.006 3.454-.24.627-.246 1.755-.62 2.662-.083.906.54 2.004 1.745 2.51 2 .506.25 1.2.676 2.44.74 1.243.063 5.672.428 6.755.406 1.084-.02 2.977-.015 3.402-.024.424-.006 1.196.215 1.653-.262.456-.48.366-1.7 1.758-1.686 1.39.015 4.023.138 4.675-.09.653-.227 1.312-1.283 2.195-.806.81.436.732.782 1.167 1.33.432.545.66 1.35.747 1.95.06.424.01.646-.375 1.22-.258.895.205 1.393.91 2.482.682 1.046 2.9 5.776 3.08 6.39.164.555 1.25 1.098 1.64 1.177.388.08.957.306 1.12.62.16.313 0 .91 0 .91"/><path d="M186.362 39.137c-.49-.29-.895-.585-2.348-.76-1.952-.24-4.01-.757-6.342-.46-1.02.273-.87.743-1.404 1.353-.213.934-.123 1.633.168 3.404.697.766 1.352 1.098 3.566 1.374 4.196.093 6.33.468 7.857-.27.2-1.133-.186-2.384-.17-3.152.035-1.515-.693-.744-1.332-1.49m-18.024-.597c-.733-.487-1.87-.53-1.947-.598-1.854-.418-3.333-.376-5.476-.46-.492.105-1.675.763-1.137 3.7.022 1.43-1.008 1.96-.694 2.116.77.377 1.017.444 2.387.543 3.33.146 2.736-.06 3.875-.01 1.356.097 2.652.07 3.3-.315 1.084-.648.748-2.213.708-3.246-.1-.46-.358-1.304-1.012-1.735m25.59 7.203c-.563.28-.67.7-1.073.78-.497.3-.487.95-1.654.97-1.185-.14-1.266-1.09-3.15-1.125l-1.252-.023c-2.897-.046-5.904-1.044-9.12-.858-.713.084-1.38.3-1.5 1.08-.025.883.146 1.948.443 2.724.22.48.567.34.867.752.52 1.016-2.46 3.88-4.18 4.014-.704.055-3.366-1.263-3.366-1.263s-1.4-.674-2.777-1.643c-1.243-1.445 1.81-2.13 2.184-3.046.248-.654.6-.74.077-2.02-.227-.557-1.103-.546-1.888-.594-.84-.05-1.71.256-4.9.16-2.254-.068-2.506-.997-4.024-.224-1.763.894-4.142.686-4.304.714-2.01.348-2.634 1.553-2.9 1.135-.34-.53.676-3.163.808-3.814.007-.034 1.064-1.2 1.123-1.622.18-1.285.544-1.428.303-3.764.27-.725-.006-2.574 1.487-3.424 1.786-.58 3.183.435 4.84.3 2.176.02 3.11.454 6.21.533.922-.17 2.504-.114 3.114-1.2.155-.275.883-1.493.93-3.24-.063.434.17-1.47.626-3.54.625-3.734.27-4.546.683-6.637.253-2.026 1.756-.666 1.924.04.13.424 1.128 3.262 1.396 4.9.334 3.254.353 3.28.653 4.52.21.86.162 1.472.316 2.8.03 2.105.473 1.784 1.13 2.227 1.455.794 4.173.35 4.67.468 4.917-.052 6.002.66 9.586-.224 1.477-.365 1.977.126 2.28.303.223.128.735.563.87.93.08.21.117.647-.174 1.01-1.23.154-.817.61-.472 1.21.68.91.25 2.436.723 3.23.315.532 1.63 1.56 1.75 1.875.49.376-.835 1.616-2.26 1.58M140.468 35.16c-.457.178-1.225.342-1.977.357-.67.34-1.26.31-1.84.73-.66.567-1.68 1.202-2.58.872-.762-.4-.893-1.12-1.763-1.2-1.414-.436-2.318-1.24-4.59-1.69-1.05-.068-2.443.054-4.664-.17-1.89-.24-1.637.14-4.264-.6.012.02-1.3-.38-1.96-.76-.566-.325-.85-.06-.848-.89.26-.27.396-.966 1.38-.95 1.03.41 2.19.91 3.836.88.276.104 2.35-.12 2.627-.096.936-.162.95-.205.966-.92a13.26 13.26 0 0 0-.212-2.622c-.104-.58-.348-1.117-2.085-1.856-2.392-.59-3.286-.467-5.633-.867-1.267-.216-1.768.443-3.66.265-.22.007-1.886-.653-2.143-1.355-.096-.26.463-1.08.67-1.34.44-.082 3.44-1.342 6.628-.893 1.405.125 2.196.69 4.563 1.06 1.204.528 2.248-.175 3.318-.05.437-.03 1.04.01 1.953.318 1.095.658 2.03.7 2.73.892 1.366.558 2.782.304 3.84.28.86-.024 1.983-.127 2.694-.182.94-.04 1.81-.458 3.288-1.315 1.567-.556 3.204.075 4.484.266 1.085.172 1.03 2.447-.03 3.092-1.558.95-2.286.51-4.018 1.32-1.03 1.032-1.4 1.43-2.12 1.517-1.427.122-2.513-1.2-4.475-1.338-.855.014-2.27-.29-3.556-.36-.7-.033-1.575.917-1.564 1.494.018 1.096.14 2.1.127 2.61-.016.472.606.37 1.164.663.875.463.616.33.986.36 1.528.13 1.906-.08 3.147-.48 1.28-1.05 2.38-.42 3.957-.653 1.498.033 1.334-.34 1.778-.2.235.036.636.33.864.723.266.57-.374 2.695-1.013 3.085m3.365 3.15c.525-.09 2.28.7 2.023 1.116-.38.677-1.97.49-2.447.984-1.803.737-1.983.037-3.504.806-1.456.495-1.996.43-3.247.596-2.017.436-2.927 1.125-4.942 1.805-1.416.594-1.627.298-.315 1.52.384.362 1.82 1.1 2.47 1.742.37.365 1.08.838 1.803.74.62-.36 1.726-.565 2.353-.385.387.385 1.154.988.468 1.926-.304.42-.814 3.245-1.557 3.796-.77.574-1.782 1.392-2.94 1.87-2.023-.075-2.896-2.12-5.06-2.552-2.02-.404-2.698-1.23-4.937-1.097-1.903-.1-3.203-.263-4.224-.513-.868-.21-1.464-.138-2.885-.4-.747-.23.237-1.513.587-1.765.174-.127 1.157-.165 1.474-.197.32-.032 1.04.162 1.326.075.72.084.73.268 1.657.36 1.422.143 2.47-.2 4.237-.013 4.566 1.023 1.99-1.94 1.556-2.442-.087-.1-.51-.616-.9-.68-.52-.086-1.024-.604-.58-1.31.196-.31-.657-.97-.742-1.08-.573-.737-.7-1.075-2.595-2.01-1.274-.903-2.322-1.44-3.35-1.74-1.453-.423-3.564-.254-4.423-.733-1.398-1.168 1.946-1.44 1.946-1.44s2.744.75 3.774.9c2.655.73 3.616 1.372 5.743 2.826.903.68 2.19 2.188 2.81 1.83 1.035-.455 1.1-.333 3.517-1.976 1.135-1.147 1.227-1.805 3.895-2.203 1.656-.385 3.97-.817 5.03-.618l1.977.262zm-32.242-5.33c-1.53-.81-6.073-4.783-7.3-6.243-.658-.702-2.534-1.633-2.927-3.158-.67-1.57-1.114-1.275-2.287-1.423-.807.29-3.392 2.913-3.586 3.645-.42.672-.18 2.103.35 2.71.34.386 1.45.488 1.657.487.893.305 2.204-.497 3.27.106 1.343.603 2.538.642 5.727 2.805 2.534 1.883 4.41 2.596 5.966 3.727.7.33 1.4 1.06 1.826 1.15 1.327.354-1.477-3.194-2.69-3.813" fill-rule="evenodd"/><path d="M110.21 39.537c-.493-.218-3.403-1.646-4.388-2.052-.984-.412-1.736-.598-1.884-.194.136.8.4.48 1.128 1.01 0 0 1.9 1.318 3.185 2.24 1.07.77 2.907 2.276 4.15 2.884.73.36 1.068-.126 2.347-.242 2.184.945 1.01 2.64.735 3.344-.215.547-1.914 2.09-2.41 1.76-.662.01-.885-1.347-1.18-1.662-.463-.494-.62-.615-1.042-.945-.426-.33-1.12-1.016-2.665-2.083-.59-.408-2.188-2.156-2.85-2.2-.933-.06-1.428 1.265-1.957 1.603-.806.515-.592 1-.433 1.313.16.31 1.43 1.346 2.628 2.29.497.335 3.113 1.77 3.553 2.017.167.093 2.063 1.28 2.257 1.578.206.082.36 1.176.283 1.52-.07.343-.46 1.17-2.535 1.07-1.183-.06-4.385.925-4.85.792-.465-.134-1.21-1.023-1.402-1.62-.19-.593.198-1.924.708-2.217.458-.41.815-.286.4-.978-.178-.293-.913-1.02-1.477-1.776-.9-1.11-2.26-2.698-3.95-3.24-2.902-.53-2.004-.286-2.955-.64-.526-.558-.716-1.827.107-3.017.88-1.462.64-2.072 1.642-2.09.54.013 1.22.485 1.33 1.17.114.68.648.837 1.092 1.287.445.45 1.31-.298 2.62-.524.245-.04.843-.206.768-.553-.145-.666-.516-.83-.942-1.288-.655-.7-1.832-1.52-3.124-1.554-1.286-.03-1.328-1.45-1.54-2.412-.355-1.607.128-2.523.69-2.622 1.174-.207 1.61 1.427 2.49 1.78.883.355 1.846 1.254 3.344 1.638 2.623.674 6.38 3.148 6.86 3.277 1.05.287 1.065.567 2.86.92.654.14 1.04 1.133 1.28 1.886-.183.9-1.014.13-1.855.045-1.07-.11-2.522-1.28-3.014-1.5"/></g></svg>