<svg xmlns="http://www.w3.org/2000/svg" width="240" height="18.928" viewBox="0 0 240 18.928"><defs><linearGradient x2="1" gradientUnits="userSpaceOnUse" gradientTransform="scale(328.905 -328.905) rotate(-84.015 -.363 -1.055)" id="a"><stop offset="0" stop-color="#530911"/><stop offset=".349" stop-color="#ca1423"/><stop offset=".505" stop-color="#ca1423"/><stop offset=".651" stop-color="#d85a4a"/><stop offset="1" stop-color="#be1a20"/><stop offset="1" stop-color="#be1a20"/></linearGradient><linearGradient x2="1" gradientUnits="userSpaceOnUse" gradientTransform="scale(328.905 -328.905) rotate(-84.015 -.2 -1.202)" id="b"><stop offset="0" stop-color="#530911"/><stop offset=".349" stop-color="#ca1423"/><stop offset=".505" stop-color="#ca1423"/><stop offset=".651" stop-color="#d85a4a"/><stop offset="1" stop-color="#be1a20"/><stop offset="1" stop-color="#be1a20"/></linearGradient><linearGradient x2="1" gradientUnits="userSpaceOnUse" gradientTransform="scale(328.905 -328.905) rotate(-84.015 -.083 -1.307)" id="c"><stop offset="0" stop-color="#530911"/><stop offset=".349" stop-color="#ca1423"/><stop offset=".505" stop-color="#ca1423"/><stop offset=".651" stop-color="#d85a4a"/><stop offset="1" stop-color="#be1a20"/><stop offset="1" stop-color="#be1a20"/></linearGradient><linearGradient x2="1" gradientUnits="userSpaceOnUse" gradientTransform="scale(328.905 -328.905) rotate(-84.015 -.087 -1.303)" id="d"><stop offset="0" stop-color="#530911"/><stop offset=".349" stop-color="#ca1423"/><stop offset=".505" stop-color="#ca1423"/><stop offset=".651" stop-color="#d85a4a"/><stop offset="1" stop-color="#be1a20"/><stop offset="1" stop-color="#be1a20"/></linearGradient><linearGradient x2="1" gradientUnits="userSpaceOnUse" gradientTransform="scale(328.905 -328.905) rotate(-84.015 -.094 -1.297)" id="e"><stop offset="0" stop-color="#530911"/><stop offset=".349" stop-color="#ca1423"/><stop offset=".505" stop-color="#ca1423"/><stop offset=".651" stop-color="#d85a4a"/><stop offset="1" stop-color="#be1a20"/><stop offset="1" stop-color="#be1a20"/></linearGradient><linearGradient x2="1" gradientUnits="userSpaceOnUse" gradientTransform="scale(328.905 -328.905) rotate(-84.015 .065 -1.44)" id="f"><stop offset="0" stop-color="#530911"/><stop offset=".349" stop-color="#ca1423"/><stop offset=".505" stop-color="#ca1423"/><stop offset=".651" stop-color="#d85a4a"/><stop offset="1" stop-color="#be1a20"/><stop offset="1" stop-color="#be1a20"/></linearGradient><linearGradient x2="1" gradientUnits="userSpaceOnUse" gradientTransform="scale(328.905 -328.905) rotate(-84.015 .098 -1.47)" id="g"><stop offset="0" stop-color="#530911"/><stop offset=".349" stop-color="#ca1423"/><stop offset=".505" stop-color="#ca1423"/><stop offset=".651" stop-color="#d85a4a"/><stop offset="1" stop-color="#be1a20"/><stop offset="1" stop-color="#be1a20"/></linearGradient><linearGradient x2="1" gradientUnits="userSpaceOnUse" gradientTransform="scale(328.905 -328.905) rotate(-84.015 .1 -1.471)" id="h"><stop offset="0" stop-color="#530911"/><stop offset=".349" stop-color="#ca1423"/><stop offset=".505" stop-color="#ca1423"/><stop offset=".651" stop-color="#d85a4a"/><stop offset="1" stop-color="#be1a20"/><stop offset="1" stop-color="#be1a20"/></linearGradient><linearGradient x2="1" gradientUnits="userSpaceOnUse" gradientTransform="scale(328.905 -328.905) rotate(-84.015 .31 -1.66)" id="i"><stop offset="0" stop-color="#530911"/><stop offset=".349" stop-color="#ca1423"/><stop offset=".505" stop-color="#ca1423"/><stop offset=".651" stop-color="#d85a4a"/><stop offset="1" stop-color="#be1a20"/><stop offset="1" stop-color="#be1a20"/></linearGradient><linearGradient x2="1" gradientUnits="userSpaceOnUse" gradientTransform="scale(328.905 -328.905) rotate(-84.015 .51 -1.841)" id="j"><stop offset="0" stop-color="#530911"/><stop offset=".349" stop-color="#ca1423"/><stop offset=".505" stop-color="#ca1423"/><stop offset=".651" stop-color="#d85a4a"/><stop offset="1" stop-color="#be1a20"/><stop offset="1" stop-color="#be1a20"/></linearGradient><linearGradient x2="1" gradientUnits="userSpaceOnUse" gradientTransform="scale(328.905 -328.905) rotate(-84.015 .72 -2.031)" id="k"><stop offset="0" stop-color="#530911"/><stop offset=".349" stop-color="#ca1423"/><stop offset=".505" stop-color="#ca1423"/><stop offset=".651" stop-color="#d85a4a"/><stop offset="1" stop-color="#be1a20"/><stop offset="1" stop-color="#be1a20"/></linearGradient><linearGradient x2="1" gradientUnits="userSpaceOnUse" gradientTransform="scale(328.905 -328.905) rotate(-84.015 .878 -2.173)" id="l"><stop offset="0" stop-color="#530911"/><stop offset=".349" stop-color="#ca1423"/><stop offset=".505" stop-color="#ca1423"/><stop offset=".651" stop-color="#d85a4a"/><stop offset="1" stop-color="#be1a20"/><stop offset="1" stop-color="#be1a20"/></linearGradient><linearGradient x2="1" gradientUnits="userSpaceOnUse" gradientTransform="scale(328.905 -328.905) rotate(-84.015 1 -2.283)" id="m"><stop offset="0" stop-color="#530911"/><stop offset=".349" stop-color="#ca1423"/><stop offset=".505" stop-color="#ca1423"/><stop offset=".651" stop-color="#d85a4a"/><stop offset="1" stop-color="#be1a20"/><stop offset="1" stop-color="#be1a20"/></linearGradient><linearGradient x2="1" gradientUnits="userSpaceOnUse" gradientTransform="scale(328.905 -328.905) rotate(-84.015 1.175 -2.44)" id="n"><stop offset="0" stop-color="#530911"/><stop offset=".349" stop-color="#ca1423"/><stop offset=".505" stop-color="#ca1423"/><stop offset=".651" stop-color="#d85a4a"/><stop offset="1" stop-color="#be1a20"/><stop offset="1" stop-color="#be1a20"/></linearGradient><linearGradient x2="1" gradientUnits="userSpaceOnUse" gradientTransform="scale(328.905 -328.905) rotate(-84.015 1.375 -2.62)" id="o"><stop offset="0" stop-color="#530911"/><stop offset=".349" stop-color="#ca1423"/><stop offset=".505" stop-color="#ca1423"/><stop offset=".651" stop-color="#d85a4a"/><stop offset="1" stop-color="#be1a20"/><stop offset="1" stop-color="#be1a20"/></linearGradient><linearGradient x2="1" gradientUnits="userSpaceOnUse" gradientTransform="scale(328.905 -328.905) rotate(-84.015 1.606 -2.828)" id="p"><stop offset="0" stop-color="#530911"/><stop offset=".349" stop-color="#ca1423"/><stop offset=".505" stop-color="#ca1423"/><stop offset=".651" stop-color="#d85a4a"/><stop offset="1" stop-color="#be1a20"/><stop offset="1" stop-color="#be1a20"/></linearGradient><linearGradient x2="1" gradientUnits="userSpaceOnUse" gradientTransform="scale(328.905 -328.905) rotate(-84.015 1.814 -3.016)" id="q"><stop offset="0" stop-color="#530911"/><stop offset=".349" stop-color="#ca1423"/><stop offset=".505" stop-color="#ca1423"/><stop offset=".651" stop-color="#d85a4a"/><stop offset="1" stop-color="#be1a20"/><stop offset="1" stop-color="#be1a20"/></linearGradient><linearGradient x2="1" gradientUnits="userSpaceOnUse" gradientTransform="scale(328.905 -328.905) rotate(-84.015 2.023 -3.204)" id="r"><stop offset="0" stop-color="#530911"/><stop offset=".349" stop-color="#ca1423"/><stop offset=".505" stop-color="#ca1423"/><stop offset=".651" stop-color="#d85a4a"/><stop offset="1" stop-color="#be1a20"/><stop offset="1" stop-color="#be1a20"/></linearGradient></defs><path d="M278.543 528.53h-61.666l-4.763-27.016h61.665l4.76 27.015zm8.574 48.626h-61.665l-4.645-26.34h61.666l4.644 26.34zm-105.762-97.658l21.126 119.81H317.9l-21.126-119.81h-115.42z" fill="url(#a)" transform="matrix(.154 0 0 -.154 -27.958 92.674)"/><path d="M365.767 560.02h15.62l-6.472-36.2h-15.168l.704 3.488h-3.69l-8.47-48.038h-20.94l8.47 48.038h-20.59l3.43 19.448 10.3 9.397h-8.784l3.154 17.887 27.195 26.647h25.336l-27.33-26.647h5.454l9.468 8.952h21.833l-36.714-36.236h14.863l2.34 13.265zm3.13-70.833H353.73l5.44 31.667h15.168l-5.44-31.667zm-61.595-6.826l7.337 41.96h17.074l-7.337-41.955H307.3z" fill="url(#b)" transform="matrix(.154 0 0 -.154 -27.958 92.674)"/><path d="M382.673 573.93c10.848-22.11 45.626-38.566 60.824-40.182l12.335 21.508c-23.516 2.89-37.93 6.614-51.463 27.88-1.447-.563-18.68-7.926-21.7-9.205" fill="url(#c)" transform="matrix(.154 0 0 -.154 -27.958 92.674)"/><path d="M382.958 598.958l-3.383-19.19h50.113c-12.11-15.305-29.2-22.322-52.75-23.825l5.366-21.25c35.38 4.823 66.305 31.85 73.668 48.81l2.726 15.455h-75.74z" fill="url(#d)" transform="matrix(.154 0 0 -.154 -27.958 92.674)"/><path d="M400.893 538.384l-1.385-7.856h-20.385l-3.383-19.19h20.384l-2.043-11.59h-26.903l-3.61-20.478h78.87l3.61 20.477h-27.76l2.044 11.592h22.067l3.383 19.184h-22.07l1.385 7.856h-24.203z" fill="url(#e)" transform="matrix(.154 0 0 -.154 -27.958 92.674)"/><path d="M521.014 578.886l-9.098-51.594c-1.416-8.036-9.646-17.485-49.168-24.687l12.484-22.69c45.818 11.68 58.022 23.53 61.412 42.75l9.912 56.22h-25.542z" fill="url(#f)" transform="matrix(.154 0 0 -.154 -27.958 92.674)"/><path d="M461.732 556.672l-3.86-21.894h130.55l3.86 21.894H461.73z" fill="url(#g)" transform="matrix(.154 0 0 -.154 -27.958 92.674)"/><path d="M474.42 590.16l6.54-22.67 104.156 10.996-10.95 22.667-99.745-10.994z" fill="url(#h)" transform="matrix(.154 0 0 -.154 -27.958 92.674)"/><path d="M626.018 576.12l-1.16-21.122-26.725-2.19-1.532-19.19 27.22 2.577-3.22-57.826 23.806 2.57 3.175 57.57 28.546 2.832c-4.146-9.788-29.217-26.015-29.217-26.015l17.99-12.62c20.836 11.59 36.387 31.165 40.703 55.636.205 1.16.243 2.19.447 3.348l-57.5-4.764 1.272 21.765-23.8-2.576z" fill="url(#i)" transform="matrix(.154 0 0 -.154 -27.958 92.674)"/><path d="M709.384 572.257l39.557-27.563 22.006 20.607-39.497 25.5-22.06-18.54zm-7.568-66.328L714.006 483c84.284 14.552 109.153 56.28 123.49 88.35l-22.1 13.522c-19.283-46.365-47.59-70.448-113.58-78.95" fill="url(#j)" transform="matrix(.154 0 0 -.154 -27.958 92.674)"/><path d="M894.668 600.59l-3.156-17.902H849.37l-3.89-21.25 69.874.643c-14.586-15.71-44.61-32.58-90.194-44.04l16.233-18.545a288.46 288.46 0 0 1 38.106 15.07l-5.978-33.873h27.19l7.336 41.598 34.04-22.538 19.28 22.15-38.075 19.834c14.476 11.85 25.995 25.5 32.28 40.955H918.7l3.158 17.9h-27.194z" fill="url(#k)" transform="matrix(.154 0 0 -.154 -27.958 92.674)"/><path d="M999.986 594.06s-4.22-20.424-10.752-55.984c-1.474-8.026-9.615-24.75-35.355-31.7l12.48-22.69c34.1 10.662 45.094 30.58 48.68 49.764 7.11 38.017 11.57 60.61 11.57 60.61h-26.627z" fill="url(#l)" transform="matrix(.154 0 0 -.154 -27.958 92.674)"/><path d="M1036.59 594.666l-19.145-108.57c43.16 3.348 71.442 36.19 83.53 58.73l-15.6 19.703c-9.62-19.84-22.755-36.19-36.127-43.407 3.758 19.705 11.264 60.66 13.68 73.54h-26.34z" fill="url(#m)" transform="matrix(.154 0 0 -.154 -27.958 92.674)"/><path d="M1106.48 587.582l-3.93-22.28 94.788.643c-5.93-9.4-21.4-23.348-41.29-34.423l-20.854 19.484-23.686-14.038 55.016-56.152 25.064 17-18.55 17.56c25.39 14.81 54.96 41.168 63.42 72.206h-129.98z" fill="url(#n)" transform="matrix(.154 0 0 -.154 -27.958 92.674)"/><path d="M1224.943 552.55l-4.2-23.825h124.712l4.2 23.826h-124.712z" fill="url(#o)" transform="matrix(.154 0 0 -.154 -27.958 92.674)"/><path d="M1354.045 542.763l17.292-17.386c12.66 7.212 23.845 18.16 32.88 30.65h30.61c-7.897-27.817-22.97-47.908-72.493-56.666l16.442-20.602c58.288 13.265 75.208 46.236 83.1 77.274h29.472l3.882 22.024h-77.734c2.964 6.31 5.667 12.75 7.632 19.06l-26.857 2.705c-5.264-17.773-18.81-42.887-44.22-57.054" fill="url(#p)" transform="matrix(.154 0 0 -.154 -27.958 92.674)"/><path d="M1495.452 498.073l15.68-17.645c57.895 15.07 76.02 42.76 89.91 89.253l-24.37 3.09c-10.573-46.23-31.195-63.874-81.22-74.693m35.7 70.062l3.905-37.608 23.59 5.41-4.462 36.06-23.032-3.863zm-33.26-3.736l5.643-38.25 23.508 6.57-6.574 36.19-22.58-4.51z" fill="url(#q)" transform="matrix(.154 0 0 -.154 -27.958 92.674)"/><path d="M1610.815 502.066l18.144-19.833c70.42 18.288 92.453 52.03 109.21 108.31l-27.673 3.737c-12.817-56.54-39.164-79.207-99.686-92.214m43.637 86.804l4.794-44.69 27.144 6.182-5.393 42.886-26.54-4.378zm-40.96-4.637l6.79-45.462 26.942 7.47-7.888 43.278-25.845-5.28z" fill="url(#r)" transform="matrix(.154 0 0 -.154 -27.958 92.674)"/></svg>