<svg xmlns="http://www.w3.org/2000/svg" width="240" height="90.718" viewBox="0 0 240 90.718"><path d="M0 71.85V0h50.144v71.85H0zm42.888-7.238V7.236H7.226v57.376h35.662z" fill="#fdd000"/><path d="M78.998 32.33h-3.112c-4.076-5.758-8.118-11.478-12.157-17.95h-.04v17.95h-3.43V7.298h3.11c4.077 5.72 8.12 11.408 12.124 17.844h.07V7.3H79v25.03zM92.264 7.3l7.975 25.032h-4.797l-1.966-6.83h-7.545l-2.182 6.83h-3.717L88.69 7.3h3.574zm.572 15.125c-.93-3.29-1.825-6.33-2.825-10.19h-.07c-.892 3.86-1.892 6.9-2.893 10.19h5.793zm11.514 9.905V10.66h-6.58V7.297h17.45v3.36h-6.58V32.33h-4.29zm12.123 0V7.298h4.255V32.33h-4.255zm6.793-12.873c0-7.008 4.506-12.587 10.62-12.587 6.116 0 10.62 5.578 10.62 12.587 0 7.473-4.076 13.303-10.62 13.303-6.542 0-10.62-5.83-10.62-13.303zm16.664 0c0-4.613-1.788-9.01-6.043-9.01-4.256 0-6.043 4.397-6.043 9.01 0 4.792 1.572 9.727 6.043 9.727 4.47 0 6.043-4.935 6.043-9.727zm25.962 12.873h-3.11c-4.078-5.758-8.12-11.478-12.16-17.95h-.034v17.95h-3.433V7.298h3.11c4.08 5.72 8.12 11.408 12.124 17.844h.07V7.3h3.43v25.03zM179.23 7.3l7.975 25.032h-4.793l-1.965-6.83h-7.545l-2.182 6.83h-3.718L175.655 7.3h3.575zm.572 15.125c-.93-3.29-1.825-6.33-2.824-10.19h-.07c-.896 3.86-1.898 6.9-2.9 10.19h5.794zM188.49 7.3h4.256v21.67h8.475v3.362h-12.73V7.3zM76.404 53.21v10.334c-2.29.895-4.685 1.538-7.116 1.538-7.367 0-12.015-5.72-12.015-13.088 0-6.83 4.648-12.802 12.158-12.802 2.328 0 4.65.858 6.08 1.93l-1.392 2.97c-1.143-.716-2.932-1.324-4.576-1.324-4.58 0-7.69 3.612-7.69 9.298 0 5.936 3.576 9.44 7.26 9.44 1.143 0 2.11-.142 3.003-.607v-7.69h4.294zm15.234-10.23h-7.153v6.868h7.01v3.36h-7.01v8.083h8.44v3.366h-12.73V39.62h11.443v3.36zm2.647 8.8c0-7.01 4.506-12.588 10.62-12.588 6.114 0 10.62 5.578 10.62 12.587 0 7.47-4.078 13.3-10.62 13.3-6.544 0-10.62-5.83-10.62-13.305zm16.664 0c0-4.614-1.79-9.012-6.048-9.012s-6.043 4.398-6.043 9.01c0 4.793 1.573 9.728 6.043 9.728s6.043-4.935 6.043-9.727zm25.1 1.43v10.334c-2.29.895-4.686 1.538-7.117 1.538-7.367 0-12.015-5.72-12.015-13.088 0-6.83 4.647-12.802 12.157-12.802 2.325 0 4.648.858 6.078 1.93l-1.395 2.97c-1.14-.716-2.93-1.324-4.573-1.324-4.578 0-7.69 3.612-7.69 9.298 0 5.936 3.577 9.44 7.26 9.44 1.145 0 2.108-.142 3.005-.607v-7.69h4.29zm14.09 11.442l-4.04-9.44h-1.93v9.44h-4.295V39.62h6.686c4.794 0 7.76 2.36 7.76 7.223 0 3.005-1.573 5.97-4.326 7.438l5.042 10.37h-4.9zm-5.97-12.55c.355-.036 1.355-.073 1.784-.108 2.038-.106 4.076-1.61 4.076-4.97 0-2.576-1.427-4.043-3.967-4.043h-1.893v9.12zm23.17-12.482l7.972 25.032h-4.793l-1.963-6.83h-7.544l-2.182 6.83h-3.716l8.653-25.032h3.575zm.57 15.126c-.93-3.29-1.825-6.33-2.824-10.19h-.07c-.896 3.86-1.898 6.9-2.9 10.19h5.793zm13.16 9.906h-4.29V39.62h6.685c4.792 0 7.76 2.36 7.76 7.223 0 4.22-3.11 8.368-8.225 8.368h-1.93v9.446zm0-12.55c.32-.036 1.36-.073 1.79-.108 2.035-.106 4.075-1.61 4.075-4.97 0-2.576-1.43-4.043-3.935-4.043h-1.93v9.12zm29.86 12.55h-4.29v-12.05h-8.907v12.05h-4.255V39.62h4.254v9.62h8.905v-9.548h4.29v24.96zm4.15 0V39.62h4.254v25.032h-4.257zm23.56-20.492c-1.035-.642-2.754-1.394-4.398-1.394-4.362 0-7.545 3.612-7.545 9.298 0 5.937 3.502 9.442 7.65 9.442a8.094 8.094 0 0 0 4.29-1.252l1.18 3.11c-1.287.896-3.575 1.718-5.65 1.718-7.365 0-12.015-5.72-12.015-13.088 0-6.83 4.612-12.802 12.087-12.802 2.217 0 4.29.93 5.755 1.93l-1.36 3.04zM73.06 90.616v-.96H61.224v.96h-2.21v-18.13H75.29v18.13h-2.23zM61.224 74.463v5.54H73.06v-5.54H61.224zm0 7.516v5.72H73.06v-5.72H61.224zm21.27 3.256h4.115V79.25c-2.02 3.544-3.907 5.58-7.57 8.19l-1.48-1.772c3.71-2.16 6.45-5.073 8.32-8.78h-7.55v-1.916h8.274v-3.116h2.057v3.116h8.04v1.916h-7.31c2.336 3.992 4.866 6.64 8.32 8.737L96.04 87.5c-3.73-3.096-5.082-4.644-7.376-8.27v6.008h4.116v1.916h-4.116v3.564H86.61v-3.564h-4.117v-1.916zm24.14 5.152h-1.93V83.1h-2.292c-.235 3.83-.536 5.357-1.393 7.495L99.19 89.13c.836-1.716 1.223-4.22 1.243-8.15v-8.72h1.993v4.77h1.91v-5.18h2.015v5.175h1.46v1.77h-5.384v2.546h4.203v9.045zm11.944-11.63c-.13 3.055-.836 5.46-2.188 7.495 1.287 1.304 1.844 1.73 3.217 2.505l-1.158 1.816c-1.18-.773-1.63-1.16-3.328-2.79-1.223 1.282-1.973 1.854-3.645 2.71l-1.46-1.61c1.974-.857 2.788-1.427 3.775-2.628-1.37-1.833-2.057-3.137-2.766-5.214l1.757-.753c.965 2.38 1.416 3.26 2.23 4.357.987-1.997 1.286-3.156 1.48-5.438h-5.726c-.02 5.132-.556 8.29-1.886 10.836l-1.822-1.16c1.307-2.67 1.672-4.686 1.693-9.9V72.26h10.443v1.893h-8.426v3.14h7.805v1.466z"/></svg>