<svg version="1.1" id="レイヤー_1" xmlns="http://www.w3.org/2000/svg" x="0" y="0" viewBox="0 0 272 56" xml:space="preserve"><style>.st0{fill:#a21a53}.st1{fill:#fff}</style><path class="st0" d="M195.2.2H-.1V56h272V.2h-76.7z"/><path class="st1" d="M195.2 3.7h73.2v48.8h-73.2z"/><path class="st0" d="M262.6 28.1c0 11.6-9.4 20.9-20.9 20.9-11.6 0-20.9-9.4-20.9-20.9 0-2.7.5-5.2 1.4-7.6L230 25c-.3 1-.4 2-.4 3.1 0 6.7 5.4 12.1 12.1 12.1 6.7 0 12.1-5.4 12.1-12.1 0-6.7-5.4-12.1-12.1-12.1-3.3 0-6.3 1.3-8.5 3.5l-7.8-4.5c3.8-4.8 9.7-7.8 16.3-7.8 11.5 0 20.9 9.4 20.9 20.9z"/><path d="M243.3 25.3l-10.1-5.8c-1.5 1.5-2.7 3.4-3.2 5.6l10.1 5.8c.5.3 1.1.4 1.6.4 1.1 0 2.2-.6 2.8-1.6.8-1.5.3-3.5-1.2-4.4z" fill="#db4174"/><path class="st0" d="M218.1 41.9V8.2h-6.2c-.4 3.1-3.1 6.3-6.1 7.3v3.9h4.3v22.5c0 1.2-1.9 2.2-4.3 2.2V48h16.6v-3.9c-2.3 0-4.3-1-4.3-2.2z"/><g><path class="st1" d="M122.8 18.2l4 3-.4.4c-1.4 8-6.7 15.9-15.3 19.7-1.1-1.2-2.2-2.4-4-3.8 7.3-2.6 12-7.5 13.8-14.2h-15.8v-5c.5 0 1.4.1 1.9.1h15.4l.4-.2zm7.2-1c0 1.7-1.3 3-3 3s-3-1.3-3-3 1.3-3 3-3 3 1.3 3 3zm-1.4 0c0-.9-.7-1.6-1.6-1.6-.9 0-1.6.7-1.6 1.6 0 .9.7 1.6 1.6 1.6.9 0 1.6-.7 1.6-1.6zM155.7 26.4l-.4.5c-2.4 7.8-7.3 12.8-14.7 15.2-.8-1.1-2.2-2.5-3.8-3.9 6.9-1.7 10.9-5.8 12.5-9.6h-13.8c-.6 0-1.6 0-2.2.1V24c.6 0 1.6.1 2.2.1h16.4l.6-.3 3.2 2.6zM137.5 21c-.7 0-1.7 0-1.9.1v-4.5h16.9v4.5c-.2 0-.7-.1-1.4-.1h-13.6zM184.9 36.7l-3.8 4c-2.3-2.8-4.7-5.2-7.7-7.1-2.7 2.9-6 5.5-10.2 7.5-.9-1.1-2.2-2.7-3.8-4 6.1-2.4 12.9-8.8 15.1-13.7h-10c-.7 0-1.7 0-2.4.1v-5c.6 0 1.6.1 2.4.1H177l.5-.3 4.1 3-.5.5c-1.2 2.7-2.7 5.5-4.7 8.2 3 1.9 5.8 4.1 8.5 6.7z"/></g><g><path class="st1" d="M27.9 40.2L14.1 23.9v15.8h-2.6V17.9h.9l13.8 16.2V18.3h2.6v21.9h-.9zM33.8 18.3h2.7v21.4h-2.7V18.3zM47 29l-2.8 3v7.7h-2.7V18.3h2.7v10.5l9.3-10.5h2.9v.2L48.9 27 57 39.5v.2h-3.1L47 29zM65.5 29l-2.8 3v7.7H60V18.3h2.7v10.5L72 18.3h3v.2L67.4 27l8.1 12.6v.2h-3.1L65.5 29zM78.5 18.3h11.3v2.4h-8.6v6.8h7.5v2.3h-7.5v7.6h8.6v2.4H78.5V18.3zM94 18.3h2.7v21.4H94V18.3z"/></g></svg>