<svg xmlns="http://www.w3.org/2000/svg" width="240" height="66.947" viewBox="0 0 240 66.947"><defs><clipPath id="a"><path d="M62.507 480.25h468.48V326.41H62.507v153.84z"/></clipPath></defs><path d="M6.248 17.883h11.616v-5.1H6.248v5.1zm0-9.053h11.616V4.08H6.248v4.75zm15.994 13.158H1.945V0h20.297v21.988zm-7.89 7.857c.497.597 1.193 1.317 2.388 2.14 1.393-.972 1.79-1.494 2.263-2.14h-4.65zm-4.85 15.943l-1.542.274c.074-1.618-.125-4.253-.374-5.72l2.14-.45c.273 1.344.497 2.762.546 4.577h4.477v-1.62h-4.13V39.19h4.13v-1.64h3.98v1.643h4.55v3.655h-4.55v1.616h5.244v3.905H9.502V45.78zm-.523-12.51c.194.497.32.895.592 1.715a25.16 25.16 0 0 0 3.83-1.218c-1.516-1.393-2.014-2.288-2.462-3.085l2.413-.845H10.17v-.572c-.845 1.492-1.193 2.09-3.183 4.626l1.99-.627zM5.542 35.64c.273-.025 1.417-.075 1.642-.1-.15-.572-.275-.97-.4-1.367-.746.92-1.02 1.218-1.243 1.468M3.43 40.37c-.024 1.94-.124 5.82-.82 7.635L.074 46.11c.548-1.69.82-4.675.82-6.017l2.54.273zM.274 35.89c.448 0 .548 0 1.543-.05.324-.424.67-.872 1.02-1.32-.97-1.293-1.84-2.088-2.836-2.884l1.67-3.632c.298.225.398.3.547.448.124-.223.77-1.517 1.293-3.134l3.332.672c-.82 1.74-2.063 3.88-2.486 4.55.25.275.448.473.72.797.524-.82 1.12-1.766 2.065-3.457l3.036 1.194V26.04H23.48v3.805c-.298.622-.846 1.74-3.208 3.755 1.516.472 2.785.722 4.278.945L22.933 38.4a27.135 27.135 0 0 1-6.193-2.338c-2.86 1.642-4.577 2.065-5.472 2.264l-1.443-2.462c.274 1.02.447 2.015.548 3.01l-2.438.72c0-.174-.1-.82-.125-.92-.15.025-.572.1-.696.124v10.297h-3.06v-9.873c-1.815.223-2.536.273-3.382.323L.274 35.89zM103.822 2.346c-.097-.4-.332-1.256-.663-1.973l1.154-.22c.414.882.635 1.67.717 1.945l-1.212.248zM102 2.65c-.36-1.352-.414-1.546-.636-2.056l1.146-.22c.138.275.374.786.704 2.04L102 2.65zm-9.508 3.27c2.36-1.215 3.644-3.173 4.307-5.216l1.98.276c-.248.65-.44 1.13-.76 1.697h3.464l.15.457 2.168-.374c-.29 2.802-1.31 5.175-3.27 7.175-1.822 1.85-4.168 2.512-6.5 2.912l-.773-1.726c4.223-.574 7.023-2.11 8.307-6.73h-4.62c-1.243 1.6-2.21 2.28-3.27 2.9L92.49 5.92zm20.275 1.56c-.262-1.78-.717-2.843-.924-3.34l1.504-.345c.62 1.214.898 2.538 1.007 3.298l-1.587.386zm-3.008 4.043c4.65-1.008 5.9-2.802 6.83-7.618l1.78.36c-.75 3.035-1.27 5.09-3.52 6.8-1.77 1.34-3.53 1.754-4.308 1.934l-.787-1.48zm0-3.437c-.18-.993-.5-2.124-1.08-3.353l1.49-.427c.8 1.586 1.076 2.787 1.2 3.38l-1.615.4zm24.375-5.726c-.22-1.325-.346-1.74-.482-2.125l1.033-.18c.25.69.346 1.118.525 2.098l-1.075.207zm-1.6.152a11.68 11.68 0 0 0-.4-2.084L133.2.263c.26.91.33 1.145.454 2.056l-1.12.19zm-.58-1.242c.137.524.193.76.193 1.255v.4h-8.64V1.27h8.445zm2.262 3.518v1.698h-4.446l-.026.36c-.346 4.566-3.134 5.49-5.84 6.028l-.77-1.67c2.76-.385 4.567-1.02 4.704-4.373l.014-.34h-5.244v-1.7h11.606zm10.97 8.072h-1.946v-6c-1.752 1.063-3.02 1.642-4.856 2.236l-.898-1.6c2.48-.83 6.125-2.18 9.975-6.735l1.71 1.12c-.65.704-1.917 2.04-3.987 3.644v7.34zM47.35 65.41c2.478-1.425 2.88-3.402 3.083-4.622H47.77v-1.29h2.817c.04-.637.062-1.026.05-1.774l1.425.02c-.03.718-.05 1.056-.112 1.753h3.7v1.66c0 1.097-.062 3.35-.42 4.243-.4.994-1.415.994-1.877.994-.797 0-1.31-.092-1.546-.123l-.072-1.37c.4.06.9.145 1.435.145.676 0 .8-.204.892-.583.133-.553.225-2.152.225-2.972v-.697h-2.47c-.523 3.424-2.337 4.91-3.536 5.668l-.93-1.044zm19.15-6.108h-6.806v-1.25H66.5v1.25zm.635 1.18c-.154 1.638-.728 3.576-2.173 4.6-.615.43-1.855 1.106-4.478 1.353l-.41-1.292c2.675-.153 4.878-.8 5.452-3.402h-6.57v-1.26h8.18zm11.3-3.557c.52.594.757.994 1.22 1.824l-.68.49c-.38-.78-.665-1.23-1.177-1.867l.636-.452zm-1.314.44c.508.575.79 1.035 1.23 1.815l-.67.502c-.38-.76-.625-1.18-1.19-1.856l.635-.46zm-3.91 2.255c-.213.337-.356.532-.694.983a14.004 14.004 0 0 1 2.726 1.62c.647-.975.943-2.173 1.057-2.605h-3.09zm-2.89 5.75c2.267-.463 3.477-1.56 4.1-2.155-.962-.747-1.516-1.126-2.694-1.73a6.736 6.736 0 0 1-1.178.932l-.892-1.045c1.333-.8 2.112-1.814 2.645-3.003h4.068l1.24 1.554c-.276 1.157-1.29 5.4-6.6 6.68l-.686-1.24zm19.51-5.422h-5.01v-1.332h5.01v1.332zm-3.565 2.48c-.41.543-.493 1.015-.493 1.24 0 .758.87.86 1.846.86.758 0 1.65-.04 2.41-.122v1.403c-.39.04-1.016.09-1.92.09-1.885 0-3.596-.237-3.596-2.04 0-.247.02-.91.53-1.774l1.22.337zM83.64 57.97c-.135.625-.432 2.1-.432 4.703 0 2.07.194 3.148.287 3.64l-1.435.1c-.092-.562-.246-1.546-.246-3.514 0-2.7.257-4.32.38-5.037l1.445.103zm16.44 7.266c.05-1.312.132-4.5-1.785-6.077l1.087-.75c1.527 1.41 2.183 2.8 2.183 6.75l-1.486.072zm-5.534-6.97c-.104.69-.267 1.774-.267 3.137 0 1.066.05 3.24.98 3.24.582 0 1.085-1.13 1.402-2.05l1.108.655c-.543 1.547-1.363 2.95-2.582 2.95-1.907 0-2.265-2.807-2.265-4.99 0-1.096.103-2.223.183-3.074l1.435.133zm16.877 6.97c.05-1.312.133-4.5-1.784-6.077l1.08-.75c1.53 1.41 2.184 2.8 2.184 6.75l-1.485.072zm-5.534-6.97c-.108.69-.27 1.774-.27 3.137 0 1.066.05 3.24.982 3.24.583 0 1.086-1.13 1.404-2.05l1.106.655c-.544 1.547-1.364 2.95-2.584 2.95-1.906 0-2.265-2.807-2.265-4.99 0-1.096.102-2.223.183-3.074l1.436.133zm17.23 1.262c-.95.092-2.38.594-3.445 1.27l-1.024-.697c.513-.3.748-.404 1.26-.61-.54.02-2.92.06-3.41.09v-1.34c1.69.02 6.16 0 6.62-.008v1.3zm-5.28 3.013c-.378.48-.43.907-.43 1.14 0 1.23 1.824 1.23 2.664 1.23 1.866 0 2.942-.11 3.587-.172l.02 1.393c-.49.03-1.545.113-3.083.113-1.66 0-4.59 0-4.59-2.417 0-.717.25-1.262.703-1.896l1.128.613zm16.79-1.134c-.84.08-5.91.665-5.91 2.58 0 .996 1.165 1.068 2.91 1.068 1.71 0 2.765-.113 3.32-.165v1.403c-.596.04-1.458.106-2.92.106-1.704 0-4.768 0-4.768-2.348 0-1.7 1.948-2.613 2.614-2.92-.4-.646-.42-1.445-.42-3.382h1.464c-.01.317-.02.655-.02 1.21 0 .91.03 1.362.227 1.71.583-.184 1.33-.4 3.34-.697l.163 1.436zm5.22 5.216c-.205-.297-.86-1.27-1.905-2.387l1.097-.738c.696.614 1.588 1.64 2.07 2.285l-1.26.84zm14.268-5.656c-.01.655-.02.81-.04 1.127h1.843c.013-.49.013-.676.013-1.126h-1.816zm1.68 3.424c.05-.668.08-1.12.08-1.15h-1.872c-.055.687-.075.83-.116 1.15h1.906zm-4.642-3.424c-.01.39-.02.594-.075 1.127h1.714c.007-.38.04-.93.05-1.126h-1.69zm1.41 3.424c.053-.35.073-.546.135-1.15h-1.762c-.042.308-.122.902-.165 1.15h1.793zm5.526-6.366v1.16h-7.237c-.174.217-.297.36-.583.667h6.958c0 .913 0 1.036-.03 2.245h.983v1.15h-1.027c-.02.593-.04.8-.06 1.15h.85v1.144h-.984c-.06.84-.687 1.413-1.527 1.413h-1.466l-.185-1.035h1.537c.185 0 .287-.08.34-.38h-6.45c.197-.736.3-1.29.463-2.294h-1.156v-1.15h1.31c.08-.707.113-1.106.143-1.967a5.6 5.6 0 0 1-.82.646l-.79-1.088c1.283-.86 1.866-1.853 2.143-2.457l1.457.247a6.43 6.43 0 0 1-.298.55h6.427zm3.932 7.36h5.37v-2.646h-5.37v2.646zm0-3.884h5.37v-2.52h-5.37v2.52zm6.733 5.154h-8.074v-8.936h8.076v8.936zm10.33-8.32c0 .408.327.726.73.726.39 0 .726-.307.726-.727a.724.724 0 0 0-.728-.73c-.39 0-.73.307-.73.73m2.132 0c0 .777-.626 1.4-1.405 1.4-.78 0-1.405-.623-1.405-1.402 0-.79.635-1.404 1.404-1.404a1.4 1.4 0 0 1 1.405 1.404m-3.414.122l1.486 1.73c-.274 1.403-.613 2.654-1.667 3.862-.853.975-2.37 2.01-4.47 2.38l-.626-1.28c4.262-.748 5.03-3.147 5.36-5.35h-6.078v-1.34h5.995zm13.02.853h-6.807v-1.25h6.807v1.25zm.634 1.18c-.157 1.638-.73 3.576-2.175 4.6-.616.43-1.856 1.106-4.48 1.353l-.41-1.292c2.674-.153 4.877-.8 5.45-3.402h-6.57v-1.26h8.18zm10.266-2.277c-.42 2.08-1.18 3.352-1.833 4.263 1.558 1.23 2.11 1.68 3.33 2.89l-1.148 1.107a32.117 32.117 0 0 0-3.024-2.982c-.965 1.077-2.43 2.276-3.988 2.962l-.78-1.137c1.486-.637 2.532-1.354 3.627-2.543 1.107-1.2 1.65-2.296 2.01-3.27h-5.073v-1.29h6.876zm-38.5-22.784c-2.94 4.918-6.148 7.37-9.626 7.37-2.818 0-3.694-2.626-2.638-7.88 1.143-5.79 4.01-8.688 8.58-8.688 2.506 0 4.3.217 5.38.65l-1.7 8.548zm2.935-14.736a55.584 55.584 0 0 0-4.71-.215c-9.77 0-15.628 4.833-17.562 14.497-1.828 9.16.554 13.74 7.153 13.74 4.23 0 7.89-2.42 10.97-7.26l-.646 7.26h6.32l7.695-38.46h-7.13l-2.093 10.435zm29.75 14.736c-2.942 4.918-6.146 7.37-9.626 7.37-2.82 0-3.698-2.626-2.64-7.88 1.15-5.79 4.01-8.688 8.58-8.688 2.51 0 4.303.217 5.38.65l-1.696 8.548zm-19.337-.454c-1.824 9.16.56 13.74 7.155 13.74 4.23 0 7.89-2.42 10.975-7.26l-.646 7.26h6.318l5.41-27.084c-4.483-.77-8.364-1.156-11.65-1.156-9.77 0-15.622 4.834-17.56 14.498m56.3-14.496l-2.714 13.53c-3.39 5.97-6.783 8.954-10.17 8.954-2.566 0-3.622-1.112-3.173-3.334l3.82-19.15h-7.127l-3.82 19.067c-1.22 6.11.89 9.17 6.32 9.17 5.256 0 9.63-3.176 13.123-9.52l-1.91 9.52c-.61 3.043-3.57 4.57-8.878 4.57-3.46 0-6.473-.448-9.037-1.345l-1.13 5.646c2.51.896 5.505 1.347 8.982 1.347 10.093 0 15.823-3.41 17.186-10.223L240 20.472h-7.13zM51.252 5.106c-4.55 2.938-8.19 6.9-10.926 11.882-2.737 4.986-3.733 9.038-3.733 14.446 0 5.413 1.66 9.73 4.984 12.958 3.323 3.227 8.008 4.84 14.056 4.84 5.048 0 11.095-.863 18.145-2.59l3.967-19.883h-17.19s1.337 1.274 1.6 3.37c0 0 2.865-.32 5.087.763l-2.155 10.85c-1.423 1.112-3.704 1.488-5.517 1.488-3.924 0-8.258-1.236-10.402-3.42-2.144-2.18-3.737-5.86-3.658-9.693.25-12.517 7.387-18.226 10.244-20.303 2.856-2.08 6.19-3.108 10.003-3.12 2.493-.005 5.65.133 8.657 1.073 1.4.44 3.607 1.407 5.408 2.983l1.764-8.234C76.218 1.3 71.542.696 67.56.696c-6.324 0-11.76 1.47-16.308 4.41m50.57 25.636c-.13 2.42-.622 4.77-1.477 7.05-.858 2.28-1.887 4.035-3.088 5.255-1.2 1.223-2.56 1.793-4.075 1.715-1.156-.06-2.037-.627-2.642-1.688-.606-1.066-.858-2.585-.755-4.555.13-2.48.63-4.85 1.493-7.137.865-2.28 1.906-4.026 3.12-5.238 1.215-1.212 2.527-1.782 3.938-1.707 1.232.066 2.147.63 2.747 1.694.597 1.063.846 2.6.74 4.605M99.465 20.23c-3.176 0-6.067.83-8.676 2.493-2.61 1.66-4.77 4.08-6.48 7.256-1.717 3.175-2.57 6.35-2.57 9.527 0 2.7.923 4.886 2.775 6.556 1.85 1.67 4.323 2.505 7.416 2.505 3.375 0 6.346-.834 8.91-2.503 2.57-1.67 4.705-4.09 6.408-7.258 1.704-3.17 2.555-6.34 2.555-9.516 0-2.68-.915-4.86-2.74-6.54-1.827-1.678-4.36-2.516-7.603-2.516m32.724 10.507a23.503 23.503 0 0 1-1.478 7.05c-.86 2.28-1.89 4.036-3.09 5.256-1.2 1.222-2.56 1.792-4.076 1.714-1.156-.06-2.037-.627-2.642-1.688-.607-1.066-.858-2.585-.755-4.555.13-2.476.628-4.85 1.492-7.134.864-2.28 1.904-4.026 3.12-5.238 1.213-1.212 2.525-1.782 3.937-1.707 1.23.068 2.146.63 2.746 1.696.598 1.063.847 2.6.74 4.605m-2.357-10.505c-3.177 0-6.07.83-8.677 2.492-2.61 1.66-4.768 4.08-6.48 7.256-1.713 3.176-2.568 6.352-2.568 9.528 0 2.7.926 4.887 2.777 6.557 1.85 1.67 4.323 2.505 7.417 2.505 3.373 0 6.344-.835 8.91-2.504 2.57-1.67 4.703-4.09 6.406-7.26 1.704-3.17 2.556-6.34 2.556-9.514 0-2.682-.916-4.862-2.74-6.542-1.828-1.677-4.36-2.515-7.604-2.515"/></svg>