<svg viewBox="0 0 84 25" xmlns="http://www.w3.org/2000/svg"><g fill-rule="nonzero" fill="none"><path d="M9.062 20.613l.025 1.004H7.184v-.882H1.91v.882H0c0-.282.028-.655.028-1.004v-9.508c0-.349 0-.732-.028-1h9.09c-.028.338-.028.651-.028 1v9.508zM1.91 14.461h5.274v-2.659H1.91v2.66zm5.274 1.67H1.91v2.91h5.274v-2.91zm9.302 4.904v.6h-1.575c.02-.2.029-.4.024-.6V16.31c-.547.052-1.045.094-1.36.118-.16 0-.452.07-.626.094l-.203-1.533c.272.014.544.014.816 0 .116.006.232.006.349 0 .24-.279.491-.59.745-.92a24.07 24.07 0 0 0-1.816-1.91l.83-1.27c.119.123.265.283.415.444a9.55 9.55 0 0 0 1.16-2.092l1.35.802a1.603 1.603 0 0 0-.161.199 17.978 17.978 0 0 1-1.394 2.192c.146.17.296.348.429.52a13.76 13.76 0 0 0 1.484-2.545l1.321.788a1.394 1.394 0 0 1-.188.226c-.585.948-1.547 2.297-2.44 3.444l1.217-.119a8.588 8.588 0 0 0-.349-1l1.175-.307c.37.938.66 1.906.864 2.893-.387.119-.892.269-1.293.373-.028-.188-.066-.4-.108-.613-.199 0-.425.038-.666.066v4.876zm-3.137-4.06c.426.07.934.15 1.283.216 0 .052-.028.146-.042.265a14.151 14.151 0 0 1-.453 3.537c-.226-.09-.854-.33-1.283-.491.345-1.144.512-2.333.495-3.527m11.154 2.872c.305.005.61-.004.913-.028v1.655c-.254-.024-.561-.024-.934-.024h-5.66c-.349 0-.698 0-.948.024V19.82l-.746.212a18.504 18.504 0 0 0-.349-2.962l1.15-.307a19.1 19.1 0 0 1 .52 2.896 4.963 4.963 0 0 1-.51.147c.299.024.598.034.897.028H21v-1.44h-2.192v-1.537h2.178v-.816c0-.118 0-.348-.028-.477.387 0 1.43.038 1.802.066a4.074 4.074 0 0 0-.028.411v.83h2.259v1.548h-2.259v1.453l1.77-.024zm-3.96-6.142a6.075 6.075 0 0 1-1.348-2.227h-.698V9.955h5.09l.121-.136c.494.352.96.741 1.394 1.164-.052.038-.132.066-.198.105a6.326 6.326 0 0 1-1.67 2.645c.7.272 1.43.46 2.175.558-.199.47-.505 1.23-.627 1.603a9.237 9.237 0 0 1-2.858-1.08c-.881.495-1.83.86-2.817 1.08-.132-.387-.505-1.16-.732-1.656a8.822 8.822 0 0 0 2.161-.547m2.552-2.227H20.85a4.036 4.036 0 0 0 1.07 1.453 3.932 3.932 0 0 0 1.175-1.453m27.664 8.069a5.28 5.28 0 0 0 1.014-3.252V8.665a4.343 4.343 0 0 0-1.07-2.861c-.2-.222-.423-.42-.665-.593a4.911 4.911 0 0 0-3.026-.791 5.294 5.294 0 0 0-3.586 1.805 5.615 5.615 0 0 0-.813 1.196 5.507 5.507 0 0 0-.53 2.638v6.971c-.027.85.173 1.693.58 2.44a4.242 4.242 0 0 0 4.252 2.091 5.05 5.05 0 0 0 3.844-2.028zm-1.189-3.019a2.823 2.823 0 0 1-2.718 2.876c-.697 0-2.545-.46-2.545-2.36V9.47a2.855 2.855 0 0 1 .433-1.436 2.96 2.96 0 0 1 2.175-1.394 2.44 2.44 0 0 1 1.742.45c.59.443.934 1.138.93 1.875l-.017 7.55zM62.7 18.15a5.28 5.28 0 0 0 1.015-3.252V7.292c0-1.05-.38-2.066-1.07-2.858-.2-.221-.423-.42-.666-.593a4.88 4.88 0 0 0-3.026-.791 5.294 5.294 0 0 0-3.586 1.799 5.615 5.615 0 0 0-.812 1.195 5.497 5.497 0 0 0-.53 2.621v6.971c-.029.85.171 1.693.578 2.44.232.4.526.76.872 1.066a4.402 4.402 0 0 0 3.38 1.018 5.06 5.06 0 0 0 3.845-2.01zm-1.188-3.018a2.82 2.82 0 0 1-2.719 2.872c-.697 0-2.544-.46-2.544-2.36V8.087a2.855 2.855 0 0 1 .432-1.436 2.973 2.973 0 0 1 2.175-1.395 2.464 2.464 0 0 1 1.725.453c.59.442.934 1.136.93 1.872v7.55zm7.385-11.16V1.146l-2.227.976v17.054l2.217-.25V9.462c0-1.045.16-2.506.875-3.506.927-1.3 2.44-2.091 3.433-2.133V1.485s-2.663.286-4.298 2.485z" fill="#000"/><path fill="#F60" d="M83.651 22.83h-8.759V20.58h8.76zM78.165 17.818a4.228 4.228 0 0 1-3.44-2.248s2.363-1.046 2.367-1.046c.066.098 1.157 1.628 2.973.453 1.15-.746 2.36-4.182-.973-5.88-.749-.38-2.296-1.045-3.053-2.561a4.406 4.406 0 0 1-.097-3.524 3.834 3.834 0 0 1 6.97-.262l-2.199.966a1.453 1.453 0 0 0-1.68-.777c-1.32.348-1.153 1.826-.878 2.335.456.847 1.704 1.499 2.185 1.743 4.239 2.09 3.761 6.713 2.22 8.828a4.64 4.64 0 0 1-4.395 1.973z"/><path d="M37.772 21.704a5.284 5.284 0 0 0 1.175-1.237c.624-.897.945-1.97.916-3.064v-13.3l-2.22.965v3.597l-.153-.073a4.88 4.88 0 0 0-4.957.526 5.287 5.287 0 0 0-1.742 2.022 5.577 5.577 0 0 0-.579 2.624v4.451c-.028.85.17 1.692.575 2.44.232.392.523.745.865 1.046 1 .82 2.291 1.198 3.576 1.045a5.298 5.298 0 0 0 2.544-1.042zm-2.844-1.143a2.593 2.593 0 0 1-1.467-.394 2.276 2.276 0 0 1-1.046-1.973v-4.998a2.872 2.872 0 0 1 .429-1.432A2.945 2.945 0 0 1 35 10.37a2.44 2.44 0 0 1 1.712.45c.584.437.928 1.124.93 1.853v5.02a2.92 2.92 0 0 1-.571 1.662 2.963 2.963 0 0 1-2.144 1.206z" fill="#000"/></g></svg>